<svg xmlns="http://www.w3.org/2000/svg" width="170" height="26" fill="none"><path fill="#fff" d="m2.33 3.82 5.46 15.47h.22l5.45-15.47h2.33L9.04 22.19h-2.3L0 3.82zm30.34 9.19c0 1.94-.35 3.61-1.05 5.02q-1.05 2.115-2.88 3.27c-1.83 1.155-2.61 1.15-4.18 1.15s-2.96-.38-4.18-1.15q-1.83-1.155-2.88-3.27c-.7-1.41-1.05-3.09-1.05-5.02s.35-3.61 1.05-5.02q1.05-2.115 2.88-3.27c1.83-1.155 2.61-1.15 4.18-1.15s2.96.38 4.18 1.15 2.18 1.85 2.88 3.27c.7 1.41 1.05 3.09 1.05 5.02m-2.15 0c0-1.59-.26-2.93-.79-4.03-.53-1.09-1.24-1.92-2.14-2.48s-1.91-.84-3.02-.84-2.12.28-3.02.84-1.62 1.39-2.14 2.48c-.53 1.09-.79 2.44-.79 4.03s.26 2.93.79 4.03c.53 1.09 1.24 1.92 2.14 2.48s1.91.84 3.02.84 2.12-.28 3.02-.84 1.61-1.39 2.14-2.48.79-2.44.79-4.03m20.03-3.45h-2.22a4.64 4.64 0 0 0-1.87-2.91c-.46-.33-.98-.58-1.54-.75a6 6 0 0 0-1.76-.25c-1.11 0-2.12.28-3.02.84S38.52 7.88 38 8.97c-.53 1.09-.79 2.44-.79 4.03s.26 2.93.79 4.03c.53 1.09 1.24 1.92 2.14 2.48s1.91.84 3.02.84c.61 0 1.2-.08 1.76-.25s1.08-.42 1.54-.75.86-.74 1.18-1.23c.33-.49.55-1.05.69-1.68h2.22c-.17.94-.47 1.78-.92 2.52s-.99 1.37-1.65 1.89-1.39.91-2.21 1.18-1.69.4-2.62.4c-1.57 0-2.96-.38-4.18-1.15q-1.83-1.155-2.88-3.27c-.7-1.41-1.05-3.09-1.05-5.02s.35-3.61 1.05-5.02q1.05-2.115 2.88-3.27c1.83-1.155 2.61-1.15 4.18-1.15.93 0 1.8.13 2.62.4s1.55.66 2.21 1.18 1.21 1.14 1.65 1.88.75 1.58.92 2.52zm18.46 3.45c0 1.94-.35 3.61-1.05 5.02q-1.05 2.115-2.88 3.27c-1.83 1.155-2.61 1.15-4.18 1.15s-2.96-.38-4.18-1.15q-1.83-1.155-2.88-3.27c-.7-1.41-1.05-3.09-1.05-5.02s.35-3.61 1.05-5.02q1.05-2.115 2.88-3.27c1.83-1.155 2.61-1.15 4.18-1.15s2.96.38 4.18 1.15 2.18 1.85 2.88 3.27c.7 1.41 1.05 3.09 1.05 5.02m-2.15 0c0-1.59-.26-2.93-.79-4.03-.53-1.09-1.24-1.92-2.14-2.48s-1.91-.84-3.02-.84-2.12.28-3.02.84-1.62 1.39-2.14 2.48c-.53 1.09-.79 2.44-.79 4.03s.26 2.93.79 4.03c.53 1.09 1.24 1.92 2.14 2.48s1.91.84 3.02.84 2.12-.28 3.02-.84 1.61-1.39 2.14-2.48.79-2.44.79-4.03m5.25 9.18V3.82h2.22v16.4h8.54v1.97zm13.58 0V3.82h2.22v16.4h8.54v1.97zm15.8-18.37v18.37h-2.22V3.82zm14.54-2.345c6.36 0 11.53 5.17 11.53 11.52 0 6.37-5.18 11.53-11.54 11.53-6.34-.01-11.53-5.12-11.53-11.53 0-6.37 5.18-11.52 11.54-11.52m-10.61 11.52c0 5.84 4.72 10.59 10.59 10.6 5.86 0 10.6-4.73 10.6-10.59 0-5.87-4.76-10.56-10.52-10.6-5.87-.04-10.67 4.72-10.67 10.59"/><path fill="#fff" d="M117.67 14.345c-.07-.09-.13-.16-.2-.24-.54-.65-1.08-1.29-1.62-1.94l-1.55-1.85c-.67-.8-1.34-1.6-2.01-2.39-.18-.22-.26-.48-.35-.75-.4-1.3.27-2.77 1.05-3.4.33-.27.7-.43 1.14-.39.63.05 1.09.51 1.24 1.1.12.48.08.95-.05 1.42-.15.53-.35 1.03-.71 1.45-.28.33-.6.62-1.03.79.07.06.13.11.19.17.48.43 1.04.71 1.67.83.56.1 1.12.19 1.69.3.71.13 1.4.28 2.07.57.69.3 1.23.77 1.67 1.37.28.39.48.82.67 1.27.26.63.48 1.27.62 1.94.02.11.03.23.04.34 0 .05-.01.09-.02.14h-.03c-.03-.07-.06-.15-.08-.22-.19-.55-.37-1.09-.57-1.64-.14-.39-.31-.77-.56-1.11-.4-.55-.91-.96-1.5-1.29-.38-.21-.78-.37-1.2-.44-.25-.04-.52-.02-.77 0-.48.05-.96.15-1.41.34a1.2 1.2 0 0 0-.24.13c.02.03.04.05.06.08 1.3 1.58 2.6 3.17 3.9 4.75.48.59.97 1.17 1.45 1.76.19.23.26.51.33.79.19.74.04 1.43-.26 2.1-.19.42-.46.79-.82 1.09-.31.25-.65.41-1.06.39-.64-.04-1.12-.45-1.27-1.1-.11-.45-.07-.9.05-1.35.13-.49.31-.96.62-1.36.29-.38.65-.69 1.1-.85.02 0 .04-.02.07-.03-.21-.19-.44-.36-.68-.5-.42-.25-.89-.37-1.37-.45-.56-.1-1.12-.17-1.67-.27-.67-.11-1.33-.27-1.95-.56-.82-.38-1.47-.97-1.91-1.77-.48-.87-.83-1.8-1.06-2.77-.03-.13-.04-.27-.06-.4 0-.04.01-.09.02-.13h.03c.02.04.05.07.06.11.18.51.35 1.03.53 1.54.14.4.31.79.55 1.15.17.26.38.49.61.7.4.36.85.65 1.34.86.43.19.87.29 1.35.26.6-.04 1.18-.16 1.73-.41.05-.02.1-.06.17-.09z"/><path fill="#fff" d="M117.81 4.725c1.15.08 2.23.4 3.23.98 1.6.93 2.73 2.26 3.38 3.99.67 1.8.64 3.6-.04 5.39a7.2 7.2 0 0 1-1.85 2.76c1.55-2.45 1.94-5.05.95-7.77-.98-2.71-2.94-4.46-5.67-5.35m-7.74 2.82c-1.5 2.41-1.89 4.98-.93 7.67.95 2.69 2.87 4.44 5.56 5.37-.07 0-.14.01-.21 0-.36-.07-.73-.12-1.08-.21-.33-.09-.66-.21-.98-.34a7.1 7.1 0 0 1-1.8-1.07c-.54-.43-1.01-.93-1.41-1.49-.39-.54-.71-1.12-.95-1.75-.19-.5-.32-1.01-.41-1.54a7.5 7.5 0 0 1-.08-1.64c.04-.71.18-1.41.42-2.08.21-.59.49-1.15.83-1.67.3-.46.65-.88 1.04-1.25m22.71-3.735v18.37h-2.22V3.81zM152.1 13c0 1.94-.35 3.61-1.05 5.02q-1.05 2.115-2.88 3.27c-1.83 1.155-2.61 1.15-4.18 1.15s-2.96-.38-4.18-1.15q-1.83-1.155-2.88-3.27c-.7-1.41-1.05-3.09-1.05-5.02s.35-3.61 1.05-5.02q1.05-2.115 2.88-3.27c1.83-1.155 2.61-1.15 4.18-1.15s2.96.38 4.18 1.15 2.18 1.85 2.88 3.27c.7 1.41 1.05 3.09 1.05 5.02m-2.15 0c0-1.59-.26-2.93-.79-4.03-.53-1.09-1.24-1.92-2.14-2.48s-1.91-.84-3.02-.84-2.12.28-3.02.84-1.62 1.39-2.14 2.48c-.53 1.09-.79 2.44-.79 4.03s.26 2.93.79 4.03c.53 1.09 1.24 1.92 2.14 2.48s1.91.84 3.02.84 2.12-.28 3.02-.84 1.61-1.39 2.14-2.48.79-2.44.79-4.03m19.82-9.19v18.37h-2.15L157.61 7.76h-.18v14.43h-2.22V3.81h2.15l10.05 14.46h.18V3.81h2.19z"/></svg>