<?xml version="1.0" encoding="UTF-8"?>
<svg id="Layer_2" data-name="Layer 2" xmlns="http://www.w3.org/2000/svg" viewBox="0 0 994.29 132.96">
  <g id="Layer_1-2" data-name="Layer 1">
    <g>
      <path d="M723.72,132.96l-96.96-.22c-35.17-.08-57.57-29.18-59.11-62.64-1.62-35.11,21.19-69.55,58.45-69.69l105.48-.41c32.44,8.28,51.32,30.61,52.54,63.59,1.28,34.72-21.25,69.46-60.39,69.37ZM710.49,88.72c10.54-.08,14.53-16.49,14.59-23.65.05-6.24-5.17-20.64-13.24-20.64l-71.95.04c-9.36,0-13.77,16.25-13.57,23.75.2,7.29,6.85,21.11,16.05,21.04l68.11-.53Z"/>
      <path d="M164.15,61.19c9.67,7.53,17.76,19.15,17.91,30.62.17,13.48-7.43,24.2-18,32.92l-37.14,7.8L.03,132.24,0,1.18l136.44-.51,31.78,10.39c13.64,15.62,13.4,35.05-4.07,50.13ZM118.41,47.56l3.95-7.7c.49-.96-5.67-3.52-6.94-3.52l-56.93-.03,1.18,8.98c.24,1.83,8.05,2.29,10.41,2.29h48.32ZM114.94,91.96c2.99-.01,7.66-2.5,9.37-3.67,1.68-1.15-3.16-8.78-5.39-8.78h-60.23s.69,12.67.69,12.67l55.55-.22Z"/>
      <polygon points="994.29 131.52 930.22 132.09 854.87 65.34 853.49 132.14 796.87 132.21 796.67 .98 856.47 1.3 936.69 69.55 937.41 1.41 993.88 .79 994.29 131.52"/>
      <path d="M328.97,114.41l-71.97-.98-12.92,18.95-63.8-1.12L254.37.57l75.38.28,73.78,130.66-63.17.93-11.38-18.02ZM307.87,74.41l-16.02-29.3-15.23,29.86,31.25-.57Z"/>
      <polygon points="493.84 131.74 435.32 132.18 434.57 45.31 369.29 45.11 369.82 1.23 559.6 1.26 559.63 44.93 493.41 45.48 493.84 131.74"/>
    </g>
  </g>
</svg>