<?xml version="1.0" encoding="UTF-8"?>
<svg id="Layer_2" data-name="Layer 2" xmlns="http://www.w3.org/2000/svg" viewBox="0 0 528.48 308.43">
  <g id="Layer_1-2" data-name="Layer 1">
    <g>
      <path d="M524.68,280.7l-.28-14.85c-.08-4.5-1.82-8.62-5.41-11.28l-8.29-3.76c7.36-1.81,12.33-6.64,14.38-13.61,2.35-8,2.44-16.63.02-24.66-2.54-8.43-9.39-13.9-17.81-15.95l-5.05-1.23h22.45s.17-38.16.17-38.16l-34.91-.15.11-41.69,30.4.1.18-36.61-30.39-.15.16-34.78,34.45.14.2-38.2-81.55-.37-.81,189.45.33,19.44c1.15,2.26,3.34,4.42,3.32,7.97l-.25,56.47c-.02,3.62-2.08,5.62-3.36,8.15l-.64,19.33,40.62.24-.02-19.54c-1.38-1.67-3.34-3.79-3.32-6.49l.11-17.16c2.98-.3,5.93-.08,8.25,1.64,2.02,1.5,2.96,4.21,2.98,6.75l.1,15.14c.05,6.64.13,12.99,1.83,19.66l35.81.21v-19.46c-1.93-1.6-3.75-3.6-3.8-6.6ZM487.53,240.26c-2.46.99-5.09.83-7.94.62l.08-22.56c3.47-.57,8.13-.59,10.68,2.4,3.52,4.12,3.71,16.91-2.83,19.54Z"/>
      <path d="M313.93,126.25c.05-12.55-4.18-24.67-16.03-29.17-4.04-2.09-8.3-1.86-12.96-3.23,8.02-1.01,15.23-2.73,20.36-8.7,4.51-5.24,6.79-12,6.85-18.97l.24-27.54c.04-4.34-.93-8.48-2.17-12.55-2.76-9.05-9.53-15.4-18.59-18.16-7.23-2.21-14.47-3.06-22.2-3.12l-62.09-.43-.62,189.46c-12.54-.47-28.73,3.69-34.59,15.42-2.3,4.61-3.35,9.65-3.4,14.93l-.35,43.42c-.05,5.86.07,11.44,1.18,17.03,2.02,10.15,9.06,17.23,18.9,20.23,18.29,5.57,42.55,3.4,57.96-8.56l.2-36.4-32.35-.28-.18,18.44c-.3,3.86-2.65,6.08-6.06,6.12-3.56.05-6.18-2.68-6.17-6.76l.22-53.11c.02-3.93,2.21-6.74,5.69-6.91,3.4-.17,6.13,2.08,6.52,5.88l.03,12.88,32.4.21.1-30.46c-9.48-6.5-20-9.66-31.11-11.74l36.19-.07.4-87.53c4.4-1.34,9.41-1.43,13.05,1.65,2.81,2.37,4.43,6.45,4.42,10.42l.05,75.42-15.27.06-.28,50.22,23.59.25.21-21.59c.36-3.14,2.38-5.32,5.84-5.07l-.3,61.63c.31,2.85-2.2,4.8-3.31,6.49l-.39,19.66,40.65.23-.16-19.67c-1.35-1.93-3.33-4.05-3.32-7.14l.32-61.08c3.47-.27,5.47,2.02,5.83,5.16l.02,21.5,23.52.15.24-50.35-33.16-.21.06-68.08ZM270.09,65.57c-.03,8.99-8.67,12.52-17.64,11.48l.19-42.13c2.74-.18,5.29-.11,8.01.38,5.44.98,9.54,5.32,9.51,11.02l-.07,19.24Z"/>
      <path d="M37.81,216.75c5.85-.55,10.12.15,11.17,5.42l.23,9.36,28.77.14.18-38.37-31.01-.19.4-79.77,27.57.08.19-36.6-27.59-.15.16-34.78,32.17.13.17-38.21L1,3.46.19,192.92c-.03,6.23-.59,12.91.34,19.36,1.41,2.25,3.95,4.35,3.92,8.14l-.4,55.55c1.25,3.92-2.39,6.35-3.08,8.93-1.65,6.3-.18,13.06-.64,19.42l40.6.16.06-19.5c-2.41-1.93-3.6-4.56-3.47-7.6l.1-17.71,21.22.05.09-21.58-21.23-.16.11-21.23Z"/>
      <path d="M417.6,198.11c-4.59-1.72-9.15-2.95-14.09-3.06l-16.23-.36c17.81-2.06,33.27-10.24,41.35-27.69,3.05-7,4.93-14.18,4.99-21.96l.26-34.11-47.04-.22-.24,42.13c-.02,2.89-.6,5.38-1.9,7.92-2.47,2.72-7.18,3.89-10.26,1.32-2.17-1.81-3.37-5.07-3.35-8.24l.5-111.56c.01-3.17,1.11-6.53,3.23-8.41,2.92-2.59,7.57-1.6,10.21.7,1.37,2.06,2.05,4.15,2.05,6.63l-.04,38.59,46.96.18.13-30.02c-.39-6.61-1.23-12.7-3.47-18.87-4.61-13.27-14.86-23.08-28.63-27.02-14.81-4.24-30.89-3.89-45.61.8-22.63,7.22-31.86,28.55-31.97,51.38l-.4,83.21c-.04,8.25.94,15.93,3.28,23.66,5.68,18.76,19.88,27.8,38.84,30.59l19.6,1.19c-11.98,1.67-23.59,5.02-28.21,17.88-1.48,4.11-2.46,8.39-2.48,12.92l-.21,50.43c-.06,14.49,5.94,25.59,20.01,29.87,6.98,2.13,14.02,2.42,21.37,2.42,16.13,0,32.01-3.73,36.72-20.17,1.23-4.28,1.79-8.52,1.81-13.14l.21-46.91c.06-13.57-4.52-25.27-17.42-30.11ZM401.35,277.99c-.01,4.37-2.9,6.96-6.43,6.97-3.33.01-6.65-2.64-6.63-6.65l.26-53.68c.02-3.81,3.05-6.26,6.14-6.41,3.3-.16,6.81,2.08,6.8,6.16l-.14,53.62Z"/>
      <path d="M157.93,278.31l-15.8-84.75c20.76.14,41.48-6.68,49.52-27.31,2.99-7.66,4.66-15.54,4.7-24.07l.48-88.66c.04-7.59-1.11-14.45-3.12-21.52-4.08-14.36-14.67-24.81-29.26-28.81-15.14-4.15-31.45-4.26-46.65-.22-24.07,6.39-32.77,27.46-32.87,51.18l-.38,85.25c-.04,8.86,1.21,17.07,4.07,25.19,6.6,18.7,22.9,26.75,41.64,28.69l-35.98.16-15.47,83.92c-.58,3.17-2.35,5.51-3.85,7.67l-.36,19.65,36.83.18.06-19.67c-3.88-1-5.44-6.35-3.48-9.12l15.65.19c2.11,2.2.64,8.08-3.04,8.97l-.11,19.65,42.2.23-.16-19.3c-1.84-1.99-4.01-4.24-4.62-7.48ZM109.89,254.16l5.69-32.96,5.66,32.85-11.35.11ZM131.59,153.19l.37-110.85c.01-3.29.82-6.6,2.97-8.79,3.1-3.15,9.08-3.09,12.16.07,2,2.05,2.79,5.16,2.77,8.22l-.59,111.21c-.03,5.96-4.06,9.41-8.88,9.42-4.69,0-8.83-3.62-8.81-9.28Z"/>
    </g>
  </g>
</svg>