<?xml version="1.0" encoding="UTF-8"?>
<svg id="Layer_2" data-name="Layer 2" xmlns="http://www.w3.org/2000/svg" viewBox="0 0 803.84 248.37">
  <defs>
    <style>
      .cls-1 {
        fill: #231f20;
      }
    </style>
  </defs>
  <g id="Layer_1-2" data-name="Layer 1">
    <g>
      <path class="cls-1" d="M.01,103.44v-13.4c1.53-21.52,8.79-40.92,23.26-57.23l9.84-9.83C48.33,9.52,67.2,1.6,87.52.03l18.12-.03c20.55,1.39,41.86,9.59,56.68,24.01,1.79,1.74,3.11,3.67,5.35,5.63l-21.14,21.23-2.96-3.55c-1.59-1.9-3.13-3.43-5-5.03-19.62-16.72-51.21-18.81-73.64-6.78-19.42,10.42-32.05,29.37-34.63,51.21l-.42,5.05c-.31,3.7-.21,6.8-.02,10.48,1.68,33.11,25.81,59.76,58.88,63.4l5.96.35c1.73.1,2.84.02,4.47-.02,11.38-.28,22.56-2.86,32.42-8.59,15.79-9.36,24.75-24.05,27.34-42.17h-65.33s0-27.6,0-27.6h93.26c1.56,8.03,2.18,15.98,1.55,23.97l-.37,4.75c-1.47,14.28-5.71,28.04-14.03,39.89-8.94,12.72-20.84,22.85-34.92,29.44-10.81,5.06-22.1,7.55-33.93,8.39l-16.37-.02c-21.26-1.41-40.76-9.59-56.52-23.82l-8.38-8.36C9.24,145.57,1.15,125.03.01,103.44Z"/>
      <path class="cls-1" d="M258.82,194.08c-31.94-2.33-55.84-26.53-59.75-57.93l-.47-5.89c-.27-3.33-.26-6.28,0-9.61l.47-5.88c2.1-16.52,9.44-31.19,21.89-42.19,10.62-9.38,23.88-14.79,38.13-15.75h11.95c12.26.93,23.9,4.84,33.67,12.28,16.51,12.58,25.47,29.94,26.81,50.72.24,3.75.59,7.11-.04,10.86l-.28,4.33c-1.61,16.42-9,31-21,42.22-10.56,9.88-23.85,15.68-38.42,16.8l-12.95.04ZM279.17,164.36c7.79-3.09,13.59-8.93,17.72-15.87,4.48-7.53,5.85-17.47,5.41-26.19-.54-10.86-4.43-20.92-12.32-28.42-8.43-8.01-18.55-11.12-30.16-9.67-8.8,1.1-15.98,5.57-21.93,12.1-6.55,7.18-9.63,16.64-10.06,26.41-.1,2.21-.18,4.01.05,6.33l.51,5.04c1.82,12.32,8.84,23.46,20.17,29.16,9.49,4.78,20.51,5.13,30.61,1.12Z"/>
      <path class="cls-1" d="M472.77,131.83c-1.2,18.63-8.94,34.61-22.94,46.91-10.41,9.15-23.37,14.38-37.28,15.34l-12.7-.03c-33.1-2.35-57.65-28.94-59.86-61.87v-13.46c2.23-32.97,26.69-59.39,59.87-61.86h13.03c14.08,1.07,27.16,6.52,37.6,15.91,13.44,12.1,20.98,27.88,22.26,45.96l.03,13.1ZM433.96,154.47c3.6-4.29,6.23-8.94,7.76-14.49,5.44-19.72.1-42.22-18.85-52.17-10.23-5.37-22.78-5.37-33.01,0-19.17,10.07-24.4,32.96-18.65,52.8,1.54,5.32,4.1,9.72,7.56,13.87,13.96,16.74,40.89,17,55.19,0Z"/>
      <g>
        <path class="cls-1" d="M554.51,248.37h-16.69c-13.25-1.28-25.77-6.35-35.88-14.83-2.33-2.02-4.35-3.69-6.09-6.17-4.97-5.52-8.26-12.13-10.59-19.44l27.79-11.39c3.43,13.82,14.81,23.38,28.64,24.75h9.43c23.66-2.46,32.88-20.74,31.87-43.52-11.26,11.46-26.25,17.05-42.26,16.52-32.19-1.06-55.57-28.07-59.22-59.22l-.28-4.81c-.2-3.34-.29-6.29-.03-9.61l.46-5.9c1.96-14.65,7.83-28.22,18.11-38.8l3.11-3.19,5.45-4.62c8.55-6.43,18.39-10.46,29.17-11.32h10.68c11.61,1.02,22.5,5.4,31.18,13.06l3.61,3.18.16-12.61h28.01s-.26,129.82-.26,129.82c-.02,8.35-2.81,16.38-5.92,23.69-2.49,5.85-5.77,10.62-10,15.24-10.41,11.4-25.36,17.92-40.46,19.16ZM579.76,143.76c6.13-15.57,3.94-36.84-8.25-49.21l-1.69-1.71c-9.07-9.2-24.13-11.31-36.25-6.54-5.07,2-9.14,5.3-12.82,9.37-6.42,7.1-9.58,16.25-10.29,25.78-.67,8.93.99,20.02,5.69,27.51,4.14,6.59,9.58,12.32,16.84,15.33,19.12,7.92,39.12-1.08,46.77-20.54Z"/>
        <g>
          <path class="cls-1" d="M788.94,158.15l12.48,6.22c-7.96,13.59-19.93,23.49-34.45,28.71-23.17,8.33-46.88,5.45-65.65-10.76l-7.33-7.29c-4.38-4.36-7.17-9.7-9.78-15.4-11.65-25.45-11.07-55.05,7.08-77.25l7.93-7.91c3.69-3.68,8.2-5.89,12.94-8.06,11.16-5.12,24.35-7.4,36.56-6.2s22.48,6.04,31.33,13.79c12.55,10.99,19.66,27.53,23.16,43.74l.63,4.09-94.35,22.02c2.38,6.63,5.65,12.54,10.82,16.97,7.45,6.38,16.92,9.82,26.63,9,12.58-1.05,22.44-6.91,28.61-18.22l13.39,6.55ZM706.16,118.7l61.88-14.47c-4.17-9.49-12.91-15.58-22.93-16.74l-7.59-.02c-9.52,1.12-16.71,3.74-23.15,10.94-4.95,5.53-7.47,12.65-8.21,20.29Z"/>
          <rect class="cls-1" x="633.29" y="3.55" width="29.31" height="186.93"/>
        </g>
      </g>
    </g>
  </g>
</svg>