<?xml version="1.0" encoding="UTF-8"?>
<svg id="Layer_2" data-name="Layer 2" xmlns="http://www.w3.org/2000/svg" viewBox="0 0 353.45 319.9">
  <g id="Layer_1-2" data-name="Layer 1">
    <g>
      <path d="M261.12,25.14c-2.21-13.97-13.46-22.9-25.86-24.83-11.27-1.75-23.26,3.85-30.33,15.01-5.63,8.89-6.19,21.85-4.15,32.44,2.84,14.74-5.65,25.17-18.84,26.52-32.7,3.33-12.02-51.51-52.97-54.03-12.83-.79-32.77,11.62-31.99,28.55,2.3,50.13,25.35,97.39-14.32,96.86-30.26-.41-8.55-57.01-49.98-58.67C18.79,86.45-1.19,99.06.06,117.62c1.79,26.7,7.26,53.49,11.26,80.36,2.75,18.47,17.43,31.18,34.97,28.62,39.72-5.79,16.79-54.73,47.25-58.19,30.53-3.47,22.59,38.44,35.07,80.14,4.67,15.6,23.9,20.69,37.38,15.2,10.05-4.1,23.85-16.78,21.63-31.43l-16.6-109.76c-1.86-12.32,3.93-21.16,14.62-24.14,7.55-2.1,22.87-1.03,24.83,11l27.63,169.89c2.88,17.72,20.87,27.81,36.58,24.32,12.99-2.89,28-15.72,25.29-32.89l-38.85-245.59Z"/>
      <path d="M59.86,252.27c-18.67,0-33.81,15.14-33.81,33.81s15.14,33.81,33.81,33.81,33.81-15.14,33.81-33.81-15.14-33.81-33.81-33.81Z"/>
      <path d="M319.64,22.01c-18.67,0-33.81,15.14-33.81,33.81s15.14,33.81,33.81,33.81,33.81-15.14,33.81-33.81-15.14-33.81-33.81-33.81Z"/>
    </g>
  </g>
</svg>