<?xml version="1.0" encoding="UTF-8"?>
<svg id="Layer_2" data-name="Layer 2" xmlns="http://www.w3.org/2000/svg" viewBox="0 0 275.89 393.64">
  <g id="Layer_1-2" data-name="Layer 1">
    <g>
      <path d="M275.7,0H.19v272.91h275.51V0ZM159.73,77.11c4.27-4.95,7.81-10.38,10.62-16.3.21-.45.39-.89.9-.89l1.98,3.91c3.42,8.49,6.43,20.06,3.99,28.89-.35,1.27-.97,2.35-2.07,3.05l-2.77,1.77-7.46,3.73c-4.16,2.08-8.04,4.37-11.69,7.25-10.22,8.06-15.77,18.77-18.42,31.41-.15.02-.39.02-.38-.06l.07-.46c-1.84-4.23-3.14-8.56-3.67-13.2-1.51-13.57,3.8-24.7,12.82-34.48,3.5-3.8,7.45-6.91,11.5-10.08,1.74-1.37,3.14-2.88,4.58-4.55ZM124.03,72.13c6.25-6.94,13.62-16.11,17.64-24.42l1.95-5.11c.99,1.31,1.58,2.57,2.14,3.98,2.51,6.3,4.43,12.72,5.72,19.4.58,2.99.87,5.85,1.02,8.86.06,1.18-.28,2.04-1.19,2.79-4.44,3.65-8.75,7.3-12.64,11.58-13.81,15.21-18.42,32.37-9.44,51.64.12.26.12.74-.04.77-.16.03-.44-.04-.64-.18-7.13-4.77-13.95-10.03-18.76-17.2-7.78-11.61-5.09-23.9,1.65-35.36,3.58-6.09,7.86-11.53,12.58-16.76ZM82.22,115.63c-.65-6.9.63-13.94,4.18-19.93,3.29-5.54,6.55-10.86,9.33-16.64,2.18-4.53,4.5-9.56,5.01-14.44.67.36,1.08.88,1.42,1.53,1.82,3.55,3.44,7.11,4.8,10.86l1.46,5.01c.33,1.15-.1,2-.72,2.95-7.8,11.94-11.2,26.27-4.3,39.37,4.07,7.74,10.65,13.3,18.1,17.81.38.23.57.59.54.88l-2.47-.13c-9.29-.5-19.15-2.58-26.65-8.22-6.13-4.6-9.97-11.36-10.7-19.06ZM134.25,240.72c-.29,1.83-1.98,2.45-3.54,2.09-1.29-.3-2.19-1.11-2.14-2.56l-8.06-74.71h23.48s-9.74,75.18-9.74,75.18ZM151.78,160.15h-39.75v-11.71h39.75v11.71ZM194.43,85.29c-.17,6.18-.76,12.19-2.12,18.22-5.34,23.62-19.79,37.97-44.55,39.43l-7.78.07c1.19-9.7,5.35-18.57,12.05-25.98,4.65-5.14,10.21-8.82,16.55-11.54,10.6-4.55,21.01-13.24,25.6-24.14.62,1.33.28,2.6.25,3.95Z"/>
      <path d="M255.43,299.83v54.55s-.26,2.45-.26,2.45c-.44,4.21-1.71,8.22-4.37,11.53l-2.45,2.46c-2.97,2.44-6.61,3.62-10.43,3.97l-5.17.02c-2.55,0-4.92-.79-7.23-1.84-6.9-3.17-9.68-10.15-10.44-17.55v-55.58s-20.67,0-20.67,0v54.17s.26,3.8.26,3.8c.27,4.03,1,7.89,2.26,11.71,5.29,16.09,18.28,23.04,34.45,24.08l7,.05.77-.15c14.17-.88,26.68-6.84,32.72-20.21,2.29-5.07,3.39-10.47,3.88-16.03l.15-.57v-56.86h-20.47Z"/>
      <path d="M62.91,356.1c-.03.16-.33.15-.4,0l-43.29-56.28-19.22.02v92.19s20.08,0,20.08,0l.02-58.74,45.36,58.76,17.53-.02v-92.19s-20.09,0-20.09,0v56.28Z"/>
      <polygon points="139.74 337.16 117.54 300.01 93.45 300.04 128.59 354.79 129.61 356.16 129.61 392.31 150.17 392.31 150.17 355.56 186.04 300.05 162.59 300 139.74 337.16"/>
    </g>
  </g>
</svg>