<?xml version="1.0" encoding="UTF-8"?>
<svg id="Layer_2" data-name="Layer 2" xmlns="http://www.w3.org/2000/svg" viewBox="0 0 227.26 252.27">
  <g id="Layer_1-2" data-name="Layer 1">
    <g>
      <path d="M202.38,249.95c-.08-.23-.58-.42-.96-.37l.43,1.34-.37,1.36h1.73l-.51-1.45-.31-.88Z"/>
      <path d="M211.23,221.62l-.31.24-1.62-.77c-.5.34-1.14.78-1,1.06.11.23.45.64.6.8l-.93.45c-.19.09.35.63.51.75s.4-.04.76-.25l.91.35c.1-.55.17-1.1.38-1.11l.72-.05,1.74-.11-1.35-1.1c-.12-.14-.31-.34-.41-.26Z"/>
      <path d="M198.62,235.87h0c.38.07.52.09,0,0Z"/>
      <path d="M197.74,237.22l-.35-.83c-.06-.15.37-.57.38-.5.18.3.46.77.53.63l.33-.66s-.08-.01-.12-.02l-.44-.41c-.07-.07-.34.27-.37.31l-1.02-.92,1.57.17c.1.01.32-.23.25-.31l-.35-.38c-.12-.13-.34-.39-.44-.31l-.63.51c.25-.71.49-1.93-.11-2.33-.51-.35-.66-.48-.98-.99l-1.07-.65-.88,1.77c.49.13.96.27.97.08l.05-.86.6,1.17c-.22.18-.7.56-.77.62l1.28.89c.25.17.13.79-.11.96.31.17.81.54.81.79v1.05s-.98-.33-.98-.33c-.25-.09-.3-.84-.4-1.21-.43.26-.93.59-1.19.41-.31-.21-.81-.76-.96-1.06l-.51,1.2,1.3.86.85.33c.18.07.2.38.42,1.03l1.17-.77.64.16c.15.04.64-.38.56-.41Z"/>
      <path d="M205.81,216.09l-.61-.36c-.15-.11-.47-.68-.63-.56l-.72.54c-.16.12.46.69.49.72-.12.07-.65.35-.55.47l.31.38-.56,1.38-.51.07c-.07.01.02.5.09.5l1.86.02c-.16-.84-.27-1.24-.08-1.37l.93-.66-.64-.12c-.11-.02-.22-.4-.22-.45l.66.07c.15.01.31-.56.18-.63Z"/>
      <path d="M196.3,226.26l.87.24c.02.4.14.89.56,1.35l.29-2.18,1.39-.43c-.88-.31-.78-2.08-1.37-1.65l-.45.33-.28-.76c-.55.84.38,2.92-.5,2.5l-.76-.36c-.16-.03,0,.9.25.96Z"/>
      <path d="M193.16,237.94l-2.2-.78c-.16-.05-.77-.15-.73,0l.14.57c.02.1.48.07.55.14l.89.96-1.18.67c.02.08.92,0,1.15-.15.23-.15.31-.48.43-.87l.13-.43c.03-.09.36.14.34.16-.08.19-.23.59-.11.6l.63.06c.43.52,1.2,1.31,2.1,1.1-.39-.81-1.38-1.76-2.15-2.03Z"/>
      <path d="M145.09,246.74c-.13-.12-.85.16-.74.3l.45.58-.52.06c-.12.02-.09.37-.05.49.02.08.52.14.59.1l1.49-.8c-.02.99.46,1.6,1.31,2.01.56-.5.23-1.41-.31-2.02-.87-.97-1.22.12-2.22-.74Z"/>
      <path d="M203.15,240.69c.08-.1-.58-1.59-.94-1.57l-1.53.11.66,1.08,1.26,1.67,1.5-.24-1.43-.45.47-.6Z"/>
      <path d="M200.04,248.18l-2.01-1.94c.2.98.59,1.6.94,2.44l.34.8c.05.11.44-.13.49-.17l-.03,1.15c0,.25.79.23.85.18-.26-.36-.52-.7-.5-.7.2-.01.46-.05.57-.1-.34-.51-.56-1.17-.65-1.66Z"/>
      <path d="M200.53,231.6l-.21-.56-.87.68.94,1.45,2.23-.41s-.15-.62-.22-.89c-.13-.54-1.76.06-1.88-.27Z"/>
      <path d="M195,220.49c.11.04.56.23.47.19.17.52.3.86.49,1.19l.14.19,1.43.66-1.11.23,1.7.12c-.17-.5-.18-.64-.14-1.42l-.93-1.22-.79,1.29-.14-.09.32-2.11.67.45c.1.07.21-.37.18-.48l-.06-.25-.45-.93-1.25.62c.12.11.38.7.21.87l-.73.69Z"/>
      <path d="M201.69,236.18c.12.15.41-.5.33-.74-.31-.95-1.45-1.12-2.59-.72.43,1.08,1.16,1.19,2.26,1.46Z"/>
      <path d="M206.02,212.15l-1.27,2.41,1.24-.27c.39-.09.96-.71.96-1.18,0-.34-.61-.83-.92-.96Z"/>
      <path d="M199.41,217.1c-.3.75-.33,1.3-.28,1.8l-.82.18c.6.68.79,1.11.78,1.92l.69-.15c.07.29.25.72.45.85.2.13.73-.37.56-.59l-1.57-1.93.7-.33c.13-.06-.08-.4-.19-.49l-.44-.36,1.57.22-1.44-1.13Z"/>
      <path d="M198.05,214.28c.03-.1.11-.56.28-.57l.85-.03c.24,0-.33-.71-.55-.63l-.88.33c-.64-.3-1.75-.17-2.23.2l1.54.92.3-.67c.07-.15.57.34.68.45Z"/>
      <path d="M203.62,229.26l-.56-.94c-.15.77-.06,1.3.16,1.88-.03.03-.27.28-.26.27,0,0,.29.18.37.23l.51.31c.1.06.29-.43.34-.51l.36-1.21-.71-.87-.2.85Z"/>
      <path d="M201.77,244.42l-1.49-2.32-1.55-.6c.85,1.25,1.74,2.34,3.04,2.93Z"/>
      <path d="M203.56,235.01c-.17-.03-.41.62-.45.91l-.07.61c-.01.12.38.22.4.11l.14-.57,1.23,1.37c.26-.95-.4-2.01-1.26-2.43Z"/>
      <path d="M144.94,249.15c-.4.46.1,1.13.52,1.29.52.2.97.12,1.22-.54-.25-.37-1.28-.95-1.74-.75Z"/>
      <path d="M198.59,239.66c0,.17,1.13.66,1.1.52l-.09-.5-.27-.12-.45-1.08c-.14-.35-.4-.61-.73-.63-.22-.01-.73.27-.61.32.72.08.73.31.09.5-.44-.16.19.09.31.13l.61.17.03.69Z"/>
      <path d="M198.87,231.32c-.14-.42-.56-1.16-1.36-.75l.81,1.08.25,1.77c.03.15.48-.07.44-.22-.25-1.05.12-1.07-.14-1.87Z"/>
      <path d="M191.59,248.52c.35.19.74.17,1.5-.09l-1.99-1.49c-.35.87-.15,1.23.5,1.58Z"/>
      <path d="M203.11,223.44l-.36.42-.28-1.14-1.37,1.44,2.32-.12c.1-.14.3-.49.18-.51-.12-.02-.42-.17-.5-.08Z"/>
      <path d="M204.28,249.71c.05.17.92.36,1.16.23l-.07-1.98c-.5.54-.74.96-1.09,1.75Z"/>
      <path d="M188.31,226.7l.8,1.61c.06.11.08.57.19.52l.53-.28c.18-.26,0-1.06-.26-1.37-.21-.26-1.03-.5-1.26-.47Z"/>
      <path d="M134.38,249.25l-.18.19.37,1.82c.68-.25.97-.81.84-1.18-.11-.3-.73-.67-1.03-.83Z"/>
      <path d="M226.9,171.44l.07-.52h-2.15s-1.81,1.71-1.81,1.71c-.52.49-.8.87-1.28,1.7-.54-1.91.21-2.46.2-3.91l-.02-2.91c0-.32.19-1.01.27-1.29l.03-3.48c0-.39-.73-.87-1.19-.98l-1.83-.47-2.03-.45-2.68-.47-2.96-.52-2.88-.34c-.33-.04-.94-.34-1.22-.56-.74.19-1.51.14-2.17-.25-.1.07-.32.28-.4.22l-.44-.33c-1.04.14-2.07.05-3.03-.41l-7.91.12-4.3-.21-12.52.37-1.26-.46.99-.82c-.22-.08-.98.14-1.04.37l-.29,1.11c-.58-.11-1.34-.41-2.05-.77l.2.42c.05.11-.31.3-.44.31l-6.51.33-.71.58c-.5-.54-1.57-.88-2.02-.04l-1.72-.61.62-1.87-2.32,1.39c-.18.11-.71.24-.83.12l-.66-.66-.5.34c-.13.09-.49-.2-.76-.42.38-.33.68-1.1.1-1.54l-1.12,1.2c-.29.31-1.26.37-1.73.38l-.47-1-3.08,2.01-1.35.88-2.03-.38c-1.38-1.82-3.12,2.73-5.18.61l-.87,1.34.31.99h-1.82c-.12.22-.48.68-.73.63l-1.2-.24c-2.48,1.38-2.67-1.47-4.03-.19-.18-.59-.41-1.15-1.04-1.81.02.94.32,1.48.82,2.3l-.89.76h-3.44s-.98.21-.98.21c-.2.04-.48-.37-.7-.57l-2.91-.07c-.95-.73-2.16-.1-2.15-.45l.02-.89-.59-.34c-.17-.1-.19-.43-.24-.75l-.67-.8-.14-1.35.17-.99c-.81.03-.61-.37-.02-.5l-.52-1.78-.56,1.48c-.09.25.13.79.22.97l-.25,1.36c-.15.82-.18,1.64.07,2.51-.08.05-.38.17-.45.28-.09.12-.23.33-.21.3l-2.36-.44c-.21-.04-.71-.36-.72-.42-.03-.21-.05-.38-.06-.45,0,.02,0,.06.01.11l-1.34.49.32-.39c.09-.11.23-.42.1-.45l-.65-.13-1.38.7-.48.2s-.02-.23-.05-.49l-2.11-.6.25-.58c.05-.12-.25-.47-.29-.35-.04.12-.23.69-.35.73-.72.24-2.16-.45-2.56-1.07-1.27.19-2.23-.55-2.88-1.77l-.65.56c-.3-.38-1.15-.82-1.57-.66-.07.03-.3.46-.34.53-.03.07-.28-.07-.27-.15.01-.12.09-.48.02-.57l-1.24-1.52-.42.34.32.73c.05.12-.4.13-.56.09-.13-.03-.07-.14-.03-.46-.01-.06-.43-.45-.48-.33l-.26.57c-.06.07-.21.27-.15.32l.51.43s-.18.12-.37.24l-.48.43c-.15.14-.58-.35-.7-.51l-.38-.51c-.89.06-1.66.1-2.39-.13l-1.37-.43c-.42-.13-1.18.28-1.53.73l-.86.11c-1.06.75-2.51.97-3.35.25-.43.3-1.1.51-1.69.48-1.32.04-2.46-.07-3.61-.52-1.4.2-2.94.4-4.11.17l-2.12-.42.45-.95-1.85.41c-.36-.11-.47-.23,0-.28l.2-.92c.04-.18-.46-.53-.59-.42-.18.14-.51.67-.71.6l-.91-.3c-.12.41-.26.79-.5,1.24l.26,1.03h-2.65s-6.68.17-6.68.17c-.45-.91-.73.76-3-.05l.68-.8c.13-.15-.05-.71-.25-.72l-.87-.06-.09-.48c-.02-.11-.46.06-.45.17.02.11.1.35.18.43l.47.49c.12.13-.3.57-.47.65l-1.63.7c-.05-.29-.04-.45-.13-.5l-.51-.31-1.61-.9-.24,1.26-.39-1.45,1.94.09-.02-.68c-1.04-.24-1.21.69-1.18-.42,0-.14.33,0,.59.11l.31-.85,1.14-.14-1.64-1.68c-.07.12-.24.46-.27.44-.03-.03-.21-.19-.26-.25-.07-.09.12-.29.18-.42l.35-.77c.06-.13.48.15.57.26l.46.58c.4-.62.36-1.43-.41-2.15l1.03-1.44c.35-.49-.37-.45.12-.91.09-.09-.44-.2-.57-.24-.08-.02.03-.51-.03-.57-.06-.06-.03-.03.33.36l.34-.12-.83-2.28c.23-.02.58-.03.56.05l-.2.59,1.11.05c.41-.05.38-.14,0-.23l-1.6-.96-.87-1.46c-.14.73-.3.67-.4.32,0-.34-.03-.78.09-.76l.62.08-.39-1.52c-.14,0-1.02.25-1.29.45-.3.23-.05,1,.23,1.46l-.37,1.53c-.68.03-.95.33-1.53.88l-.19-1.69.33-.57-.26-.61s.08-.14.13-.25c-.55-.7-.98-1.47-1.43-2.34l-.81-1.58-.12,1.98-1.41-.48c-.08-.03-.24-.32-.29-.39-.05-.06.31-.02.39.02l.42.19c.11.05.45-.32.35-.4l-.59-.52,1.13-.45c-.08-.18-.13-.3-.21-.33-.08-.03-.35-.06-.37-.14l-.18-.86c-.04-.2-.5-.06-.86.07-.39.05-.34-.06-.06-.22l.43-1c.08-.18.59-.07.78-.1l.55-.09c.12-.02.14.2.24.45l-.36,1.44,1.13.1c.26.02.55-.73.4-.94-.45-.41-.79-1.1-.53-2l-.86.64c.06.08-.41-.2-.3-.25.1-.05.46-.3.4-.4l-.27-.45c-.05-.09.12-.26.3-.5l-.89-.4.11-1.45c.25-.56.43-1.04.48-1.38l-1.24-.18c-.15-.02-.2-.38-.16-.53.04-.15.57-.22.68-.11.09.09.44.41.44.42,0,0,.26-.42.34-.51l.31-.37c.05-.06.09-.02.11.06l.2.73.41-1.25,2.8-.06,3.36.12,9.15-.13c34.61-.47,69.06-1.69,103.63-4.22,5.3-.39,45.12-3.42,44.13-6.45-.38-1.15-6.62-1.87-9.36-1.97l-21.66-.79h-23.74s-16.23.26-16.23.26l-8.36.22c-26.17.69-52.18,1.95-78.3,4.03l-26.54,2.69-10.43,1.85c-1,.18-1.99.68-2.84,1.3.81.8,1.06,2.09,1.01,2.89-.04.67,1.15-.05,1.04.27l-.16.43-.75,2.25,1.48.33c.07.02,0,.51-.07.52l-.42.06-.62,1.95,1.96.43c-1.37.41-1.63,2.29-1.76,3.73l1.43.96-.94.79c-.27-.5-.4-.1-.35.23l-.11.45.84.83c-.55.27-1.03.48-1.04.71l-.03,1.01.09,2.61,1.77,1.48-.84.49c-.1-.11-.14-.15.24.27l-.39.89c-.21.49-.41,1.16-.46,1.64l-.48.31c-.13.08.17.38.3.51-.25.24-.63.83-.57,1.16l.28,1.53c-.46.86-.19,1.78.36,2.62.49.75-.07,1.74.27,2.85.04.13.58.1.56-.04l-.14-.71,1.25-1.45c.76-.26,2.07.17,2.92.38l1.98.48c.9.22,2.14-.02,2.87.69l1.94.48c.49.24,1.04.41,1.76.4l.85.74c-.39.15-1.28.49-1.73.85-.37.3-.09,1.54.07,1.92-.26.18-.46.32-.54.24l-.34-.31-.9,1.12h.89s-.04-.4-.04-.4c0-.07.36-.03.42.02l.88.72c.22.18.8-.48,1-.73,0-.04,0,.36,0,.51,0,.14-.31.29-.47.31l-.77.12c-.16.02-.22.49-.26.69-.12.22-.22.41-.27.49l1.23.45-.88.23c.18.12.61.4.53.51l-.47.67.1,1.71-.6-.23c-.08-.03-.33.02-.32.11.01.13.18.46.31.46l.55-.02c.16,0,.28.5.26.66-.01.11-.44.36-.35.43l.61.47c.09.07.02.43-.09.44l-.52.03.12.62c-1.4-.26-1.29-1.89-2.65-1.5l-.8.23c-.19.05.25.63.41.74l.59.4c.93.16,1.71.53,2.2,1.6l1.59.38-.08.16-.5.45-1.18-.81c-1.09.14-1.96-.79-2.75-1.29l-2.71-1.69.56-.22c.11-.04.06-.2-.01-.59-.11,0,.31-.01.31-.02,0,0,.07.25.12.42l.13.46c.03.09.36-.21.35-.3,0-.17-.2-.6-.06-.7l.9-.58-.71-.41c-.21-.12,0-.81-.03-1.07l-.28-1.78.76.9c.18-.82-.21-1.4-.68-2.06,1,.69,1.59,1.1,2.58,1.34l.86-1.56-.97.78c-.08-.1-.31-.37-.3-.39.04-.05.31-.26.43-.35-.5-.28-1.19-.35-1.66-.18-.25.09-1.22-.08-1.16-.34l.22-1.07.38,1.33,1.45-.93-1.2-.08c.23-.26.59-1.12.32-1.17-.42-.09-1.15.04-1.65.16.07-.9-.54-2.32-1.61-2.27-.53.02-1.12.03-1.43-.05-.48,1.36-1.83,1.88-2.48,3.56l-2.44.45c-.8-.11-1.35-.46-1.7-1.17-1.44-.69-2.9-1.58-3.94-2.77l-1.36-.34.12,1.39-.35-.66c-.05-.09-.05-.12-.12-.05l-.45.4-.53.12,1.29-1.85-1.44-.26-1.19-.76-.58-.24c-.13-.05-.13.34-.15.63-1.6-.26-2.39.56-3.34,1.58-1.43,1.53-2.38,3.24-3.01,5.24l-.58,1.85-.47,1.95-.47,2.3-.54,2.46-.49,1.66c-.26.87-.2,2.67.09,3.61.34,1.12.59,1.97.6,3.12,0,.93.39,1.56.49,2.47l.5,4.6c.47.16.46,1.36,1.03,3.54l.69,2.62.41,3.82c.06.55-.09,1.27.15,1.91-.07,1.15-.13,2.23.49,3.21.29,3.52-.1,7.11.6,10.63l.76,3.84.66,2.94.72,3.28.66,1.79.66,2,.44.26c.12.07,0,.62.08.76,1.13,2.21,4.4,6.14,6.45,7.6l1.15.82,4.39,3.59c.7.57,1.48.91,2.24,1.13l.79.47c.24.14.87-.18,1.15-.31,3.1-1.5,3.6-4.8,4.49-4.6,1.15.26,2.72,4.08,2.43,6.53l.47-.6.34,5.23-.02,1.55h29.07s.12-.88.12-.88l-1.25-.02c.98-1.27,2.5-2.43,3.7-2.97-.03-.02-.06-.84.18-.87l1.13-.15c.05.01.02-.5-.11-.57l-.56-.32.41-.91c.09-.2-.51-.61-.59-.67-.04-.25-.15-.59-.03-.56l.54.11.24-.9-1.67.71.24.66c.04.11-.53.2-.58.09l-.18-.39-.21-1.07c.94.2,1.34.19,1.53-.06l-1.35-.34c-.27-.07-.23-1.02.03-1.1.45-.14,1.15-.48,1.48-.72l1.48-1.06c.14-.1.15-.84,0-.94-.16-.1-.51-.33-.62-.18l-.61.81-.1-.74c-.02-.16-.66-.28-.79-.19l-.98.69c-.21.14.63,1.53.28,1.59l-.91.16.53-1.16c-.4-.8-.15-1.6.57-2.03v.66c-.01.08.27.09.33.05l.41-.32-.8-.76c-.01-.25-.19-.72-.42-.86-.15-.1-.37-.04-.84.15-.16-.33-.02-1.03.22-1.85-.68.59-1.42,1.17-2.19.92.52-.42.83-.73,1.18-1.31.04,0,.55.08.61-.1l.23-.76c.11-.36,0-1.08-.18-1.37l-.3.83c-.05.14-.43.18-.55.09l-.52-.37.23.76.87.3c-.57-.02-1.23-.14-1.57-.26l-1.45-1.19s.4-.25.53-.34c.13-.08,0-.54,0-.64l.66-.27c.12-.05-.25-.4-.37-.36l-.42.15-.66.24c-.11.04-.24-.41-.14-.46.25-.14.78-.36.73-.56l-.28-1.16,1.36.91c.25-.22.46-.4.53-.31l.22.28s-.26.31-.29.38l-.56,1.25,1.71.04-.5-2.05,1.17.74c.22-.31-.36-.86-1.09-.98l-.15-2.08.49.65.04-1.44c.38-.08.99-.17,1.04-.41l.19-.88-.65.29-.41-.16-.71.22c-.12.04-.32-.44-.23-.52l.47-.42c1.29-.07,1.77-1.26,2.08-1.09l.58.33,1.19-1.64c.09-.13.21-.72.33-.62l.62.53.88-.71.1,1.59.49-.72c.05-.08.2-.14.52-.32l-.45-.71c.19-.15.51-.36.54-.51l.12-.6c1.52-.21,1.76-1.71,2.2-1,.04.07.07.18.01.23l-.57.48.69.06c.12.01.2-.28.31-.53l.74.69.94-1.35.31.87c.24-.2.52-.46.64-.36.09.08.4.35.38.34.26-.41.72-.99.99-1.07.95.29,1.94.5,2.85.6l-.4-1.19.74,1.08,1.66-.28-.15-.45c-.02-.07.25-.17.29-.11l.32.46.69-.98.35.92c.07.18.58.05.63-.14l.21-.79c.29.61.84.85,1.6.93l.48.05c.09,0,.05-.39.09-.47l.32-.63c.04-.08.15.28.14.37v.42c1.24-1.15,2.69-.77,3.94-.33-.05-.48.25-1.24.49-1.37l1.31.5c.28.11.78-.21.92-.58l.56.34,2.4-.12.27-.75,1.79.35c-.07.08-.31.48-.19.52l.51.19c-.56.18-.61.39.18.46l.77-2.12c.32-.03.53.07.15.64-.06.04.32.08.39-.04l.24-.42.43,1.38c.12-.37.2-.76.34-.69l.59.3c.22-.28.68-.69,1.01-.75.29-.06.79.28,1.25.54l.77-1.37c1.3.12,2.22-.94,2.21-.26v.94s-.14.72-.14.72c-.02.09-.29-.1-.33-.18l-.21-.36-.24.78c-.03.1,1.61.08.93.38l-.54.23c-.15.1-.41.37-.54.28-.13-.09-.58-.42-.52-.37l-.92,1.44,1.23.08c.27.02.43.63.4.9-.01.1-.59.15-.53.23l.26.36c.04.06.21.09.29.09h.56c.12,0,.01.62-.11.59l-.39-.11-.82,1.16.81.41-.82.75c.23.25.62.71.54.91l-.28.71.05.4c.01.09-.3.05-.36.02l-.46-.33c-.1-.07-.51.18-.44.29l.42.68-.7.76.52.98-1.35.99-.91.24c-.2.05-.28.61-.38.8-.18.1-.69.19-.72.38l-.13.71,1.23-.37.77-.23-.43,1.65.58.28c.11.05-.09.17-.41.34l1.15.59-1.59-.09v2.03s.88.1.88.1c.18.02.02.67-.05.83l-.29.64c-.04.09-.29.03-.77-.06l-.34.66,2.3.07.09.3-1.05.11c-.24.03-.78.45-.75.69.03.24.36.53.71.73-.76.65-1.01,1.75-1.02,3.03l-.36-.36c-.07-.07-.32.29-.38.38l-.53.87c.11.04.47.13.57.02l.38-.4.81,1.13c-.92.26-1.06,1.06-1.16,2-.1.93-.12,1.39.31,2.24.21.42-.6,1.19-1.09,1.28-1.22.23-1.29,1.55-1.03,2.27.06.18.56.28.59.13l.09-.5c.54-.49.88-.99,1.04-1.61l.68-1.12.47.16c.08.03.21-.06.32-.11.16.14.46.43.59.32l.58-.49c.22-.18.8.46.8.75l-.02,1.44c1.18-.56,1.06-2.07,1.66-1.14.08.13.24.35.14.44l-.51.46c0,.63-.12,1.28-.51,1.81h29.23s.38-.45.38-.45c.06-.12-.42-.36-.47-.32-.19.74-.39.41-.44-.05.16-.33.41-.89.18-1.1l-1.02-.94,1.27.03c.09-.12.33-.42.32-.42,0,0,.18.22.23.28l.11-.14-.35-.92c-.08-.22.48-.71.72-.76l1.15-.23c-.36-.36-.54-.53-.54-.72.01-.37-.32-.34.5-.59.25.57.46,1.71.44,2.16l1.05.66,1.32-.17,1.07.84c.12-.14-.15.38-.3.33l-.64-.22-1.38-.42,1.48,2.47.95.71h.26s1.79-.6,1.79-.6l-.41-.5c-.68-.2-1.17-.76-1.54-1.39l.5-.06c.08,0,.33-.06.29-.13l-.31-.58-.31-.58c-.07-.14-.4-.05-.6-.01l.03-.34c.05-.62-.42.26-1.1.05-.22-.07-.21-.54-.23-1.01l.68.14-.19-2.23-1.79-.95c.38-.17.84-.31.85-.47l.04-.77.69.8c.14.16.5-.03.79-.3l.68,1.31v2.03c.45.93,1.66,1.34,2.72,1.23l.32-1.17-1.53-.09-.84-1.19c-.02-.15.47-.59.64-.5l.92.5c.11.06.48.38.55.28l.39-.61c.44.28,1.09.28,1.64.03l-1.52-.67,2.25-.27c-.19-.55-.3-1.18-.27-1.46.46-.9.98-.99,1.77-.54l1.35-.41-.52-.45,1.53-.21c.32-.04.22-1.02.44-1.26l1.28-1.4c.36-.39.97-1.01,1.11-1.41l.7-1.98-.88.19c-.19.04-.46-.32-.64-.47l-.67-.55c-.11-.36-.36-.96-.62-1.07-.3-.13-.74.1-1.35.42l.09-.85-1.46.43c-.09.03-.56.09-.52,0l.36-.82c-.47.23-.81.43-1.29.33-.42-.09-.64-.55-.9-1.2l-.17,1.31-1.67-1.12-.76-.25,1.17-.86-1.59-.44-.37.46c-.1.12-.46.08-.65.09-.26.09-.48.22-.61.16l-.81-.37-.21,2.25-.93.25c-.2.05-.12.7-.1.97l-1.09-.02,1.13.78-1.1-.08c.03.1.01.65-.21.68-.35.05-.7-.03-1.19-.13l.52.52-.95.92c-.07-.02-.63-.1-.72.03l-.36.53-.19.22-.25.29c-.07.08.42-.05.66-.12.02-.07.14.44.02.47l-.66.16c-.17.07-.52.51-.71.45l-1.05-.32.19.67c.04.12-.1.29-.24.49-.14-.13-.48-.44-.45-.41-.39.28-.94.62-1.25.64-.34.02-.79-.32-1.3-.67l.72-.15c.16-.03.05-.55.01-.72-.04-.16-.37-.08-.6-.06l-1.58-.27.17-1.9c-.99.13-1.55.25-2.01.72l1.56-.05c-.41.33-1.01.53-1.52.58-.02.1-.43.3-.41.21.03-.73-.17-.72-.43-.25l-1.18-1.05c-.08.07-.27.31-.36.27l-.47-.23c-.05.17-.35.8-.58.77l-1.13-.13v-1.06c0-.3-.98-.32-1.27-.27l-.74-1.06c-.22.8-.44.53-.52.02-.15-.74-.22-1.14-.69-1.48-.53-.39-.99-.3-1.56-.02l.3-.6-.26-.9-1.36-.37c.01.09.05.37.09.7l-.54-1c-.13-.25.39-.67.66-.89l-.96-.08c-.16-.01-.19-.17-.41-.42-1.38-.34.16-2.12-1.79-3.74l.49-.56c.11-.13-.12-.41-.19-.58l.36-1.36-.77.08c-.11.01-.13-.39-.13-.33l-1.81.08.4,1.32c.24-.07.79-.23.79-.04,0,.19-.08.68-.16.85-.32.65-.74.9-1.33.9-.77,0-1.19-.7-1.26-1.45l1.05-.28c-.05-.54-.2-.88-.42-1.17l-.39-.28-.58.21c-.1.04-.29-.36-.21-.43.12-.1.39-.22.56-.23l2.11-.14c-.02-.22-.09-.93.1-1.07l.75-.58-.1-.43c-.03-.12.32-.44.32-.31l.04.72c0,.14,0,.66.13.64l.67-.14-.23,1.91c1.11-.71.52-1.59.37-2.48l1.18.62c.22-.4.47-.77.65-.77l.82.04c-.19-.55-.02-1.14.4-.29l.07-1.11,2.41-1.78c-.03-.66-.36-1.78.17-2.34l-.48-2.29.54.04c.1,0,.2-.36.11-.4l-.64-.25c.16-.06.71-.4.73-.64l.13-1.37c-.23.11-.89-.15-.91-.51-.02-.28.11-.66.24-.96l.48-1.11c.12-.27.79-.19,1.22-.08l-.16-.79c-.05-.23.48-.39.89-1.34.09-.22-.66-.4-.93-.44l.42-.3c.1-.07-.31-.39-.37-.44.31-.21.68-.62.87-1.03.07-.14-.02-.66-.16-.7l-.6-.15,1.01-.92-.39-.56.53-.63-1.34.13-.18-.58c-.04-.13.08-.28.22-.31l1.12-.21c.31-.06.3-.94.19-1.23l-.31-.76c-.06-.14-.51-.12-.5-.12.31-.65.41-1.24.17-1.63l-.28-.46c-.04-.07-.3-.01-.31.07l-.03.5-.44-.47c-.12-.13.37-.36.72-.49l-.9-.56c-.07-.24-.1-.49-.23-.56l-.79-.44,1.55-.19c.67-.08,1.01.08,1.75-.4l-1.39-.13.5-.42c.07-.06.12-.12.04-.16l-.76-.39.78-.31c.16-.07-.02-.57-.05-.74.54-.59.67-1.22.34-1.93l-.57-1.25c.29-.65.26-1.12.57-1.77l1.65-3.54c.94-2,.14-3.88,1.88-4.23.08-.02.05-.49.13-.47l.49.12.23-1.05.3.82c1.16-1.09,2.45-1.36,3.89-1.1,2.44-.9,6.14.2,7.31,2.64.01,1.06,0,2.44.45,3.41l1.45,3.07.68,2.44.84,2.53,1.23,2.72.55,1.61c.23,1.22.59,2.07,1.28,3.02l.7,1.82,3.81,7.67,1.01,1.88,1,1.47c.46.67.77,1.38.89,2.15.22.5,1.04,1.01,1.61,1.57.4.4.97,1.3,1.48,1.21l.49-.09c.12-.02.43.21.34.29l-.51.43c1.5-.54,2.57-.03,3.24,1.16.88-.34,1.43-.24,2.18-.08l1.44.3-.2-.5,1.8.32,1.33.49.71-.39c.18-.1.58.39.69.6l.8-.47-.11.5c-.02.07,0,.32.05.27l.25-.31.29-.55c.07-.13.38.37.41.4h.86s.23-.41.23-.41c.05-.08.37.18.35.27l-.15.63c.08-.02.31-.09.47-.13.18-.48.11-.34.13-.26l.17.64,1.22-.86c.02.16,0,.47.11.49l.89.15.29.83.52-1.14.3.73c.11.27,1.36-.25,1.56-.05l.76.75c.1.1.66-.11.65-.25l-.04-.85.27.97.65-.09c.15-.02.27.23.63.69l.55-.58c-.53-.57-.44-.48-.09-.12.28.22.88.72,1.18.69.3-.03.72-.28,1-.42,1.12-.58,1.97.2,2.54,1.41l1-.87,2.13.39.45.08c.07.01-.04.19-.09.24l-.42.41c.27,0,.55-.06.65.04l.64.62c.04-.13-.24-.69-.08-.69h.75c.15-.02-.02.46.03.86l1.14-1.12.6.24c.11.05,0,.41-.12.39l-.68-.1-.22,1.33c.11-.02.47-.15.5-.3l.09-.49c.02-.1.46-.14.48-.04l.06.52c.54.19,1.48,1.18,1.12,1.59-.46.53-.79.86-.8,1.18-.02.46.98.84,1.31.8.01.68.23,1.42.77,1.73l-.4.66c-.09.15.53.27.65.31l-.51.33c-.09.06-.27.48-.16.49l.78.11c.12.02.63-.08.63.04l-.02.58-.03.61c0,.16.36.21.53.22l.15.1,1.07.33,1.25-1.71.62,1.4.47-1.33.22.37s.9-1.01,1.47-.82c.43.14.68.84.74,1.19l.11.59c.02.12.37.02.38-.11l.02-.55c.7.5,1.27.66,2.02.47l.38-.08c.11-.02.3-.36.18-.38s-.48-.04-.58-.1l-1.76-.93c.18-.65-.16-.91-.49-.32l-.67-.8s-.28.33-.36.26l-.51-.46-1.76.22,1.11-.95-1.21-.14-1.39,2.1.09.71c.02.15-.44.05-.71,0l.1.48c.03.12.16.39.04.39l-.72.03-.12-.1.52-.31-1.03-1.79,1.09-.61-.48-.37c-.09-.07.29-.28.51-.41-.04-.05-.67-.64-.87-.55l-1.04.46c-.16-.42-.28-1.41-.15-1.86l.98.55c.21.12.65-.11.78-.3l.12-.06.85-.68,1.13-1.2-.24-1.08h-.31c-.09,0-.23-.32-.13-.34l.67-.12c.51-.05.46-.18,0-.23l-.89-.04c-.15,0-.25-.47-.33-.6l-1.65-1.9-1.24,1.33-.08-1.37-1.01.35c-.26.09-.61-.63-.74-.84h-.54c-.12,0-.32-.26-.38-.36l1.1-.19-.88-.3c-.13-.05-.16-.23-.13-.7.5.32,1.02.79,1.46,1.26h.98c.23,0,.35-1.05.14-1.15l-.85-.44,1.34-.45.04,1.48c0,.07.43.12.47.07.06-.08-.14.33-.22.4l-.43.39c-.1.09.21.51.33.44l.5-.31.43-.17c.11-.04.24-.36.31-.49l.83-1.62-.07.61c-.01.12.23.45.28.33l.18-.51c.04-.11.13-.06.26,0,.1.05.3.22.32.33l.08.39c.02.11.24.36.27.25.33-1.22-.18-1.68.32-2.32l-.51-.52.74.11c.16.02.44-.46.32-.39l-1.31-.66c-.42-.21-1.43,0-2.01.02.1-.73,1.22-.47,1.64-.62l1.99-.68,2.43-.65c.17-.05.61-.61.72-.48l.77.9-.18-.84c-.04-.17.45-.16.64-.1l.26-.52c.06-.13.61-.02.72.08l1.4,1.32-.69-.08c-.1-.01-.27.04-.42.07l-.27-.27c-.06-.06-.33,0-.35.08l-.15.89,1.04-.29.04.67c0,.14.32.34.37.27l.89-1.59-.63-.24c-.13-.05,0-.46.09-.57.12-.15.52-.23.67-.11l.36.29c.08.07.35-.19.31-.29l-.3-.65,2.22,1.44.39-.16-.13-.55c-.02-.07.03-.22-.03-.18l-.66.47c0-.57-.29-1.1-.79-1.39-.5-.28-1.11-.27-1.61.03-.66-.93.59-1,.87-1.28l1.25-1.21.65-.67c.36-.37,1.23,1.14,1.33.97l.44-.76-1.08-.41c-.1-.65.84-1.37,1.18-1.94l2.92-4.79c.51.52,1.3.85,1.91.82l-.38-.45c-.07-.08.08-.23.21-.33l2.38,1.18-.1-.84c-.02-.17.34-.33.67-.59.05-.07-.6-.54-.79-.44l-.9.45.23-1.44-.82-.97.39-1.46c.57.44.88.58,1.49.32-.78-.6-1.23-.78-1.91-.96l-.08-.75c-.02-.16.32-.12.71-.03-.32-1.12.16-2.34,1.01-3.07-.1-.72-.09-1.64.22-2.32l1.15-2.52-.51-.07c.31-.47.73-1.04.82-1.4.6-2.35,1.66-4.53,3.79-5.77.51-.3.83-.93,1.01-1.62l.91.96,1.35-1.42-.03,3.37c-.56.41-.8,1.49-.25,2.24l.81,2.33.8-2-.31-1.85c.12,0-.43-.02-.38-.16l.25-.79.69-2.08c.19-.57-.08-1.94.63-2.28l-.16-.77c-.05-.25.48-.56.91-.72l.09-.69c.83-.68.84-1.82.32-2.54ZM23.21,129.01l-.74.21c-.15.04.31.4.41.44l-.62.98c-.15-.03-.62-.35-.72-.52-.14-.23.18-.56.65-.7l-.44-1.79c-.02-.09.39-.37.42-.28l.15.45c.04.12.16.57.29.58l.83.1c.09-.05-.08.48-.23.52ZM4.22,190.82l.03-1.41c-1.02-.71-1.66-2.65-1.12-3.33l-.34-1.2.42.06c.07,0,.33-.01.28-.07l-.38-.47c-.25-.31-.78-1.05-.9-1.43l-.67-2.11.41-.86c-.29-.16-.78-.56-.78-.87.01-.39.5-.9.82-1.06-.81.19-1.1-.43-.27-.52l.66.47c.13.09-.11.48-.24.58l-.66.55.91.35c.22.08.02.72-.01.89l.67.44c.14.09.02.52,0,.7l.16,2.17,1.13.44-.59,1.01c-.11.19.29.62.36.73l-.38.73c-.09.16.52.5.57.69.23.84.62,2.5-.1,3.5ZM10.49,216.95c-.35.17-1.02-.69-.86-1.06l1.29-2.85-1.28-.15-.7,1.03-1.67-.36.4-1.04c-1.01-1.41-2.23-2.48-1.52-3.33.05-.06.02-.09-.05-.11l-.73-.2.45-.62c.09-.13.24-.09.78-.19l-1.17-1.41c.29-.45.25-.92-.12-1.5l.05-1.93c.21-.17.67-.62.58-.78l-.33-.6.7-.16c.09-.02,0-.4-.09-.39l-.43.05c.28-.94.24-1.42,0-2.54l.95.79.69-.81c0,.18.03.61-.1.68l-1.06.54,1.33.35.55-.28c.45-.23.73,1.46,1.05,1.32l.88-.4c.18-.08.44.7.37.95-.07.27-.31.53-.59.74.07.11.38.55.3.7l-.44.83h1.58s-.86.59-.86.59c-.15.1-.09.58-.08.74l-1.32,1.07.44-1.88-.89.14.05,1.46-.47-.35c-.06-.05-.3-.25-.31-.17l-.05.59-.04.52c-.01.15.73-.06.72-.07.36.42.56.59,1.28,1.16l-1.21.46,1.17.47.4-.92c.06-.15.59.21.54.36l-.39,1.06,1.38-1.28-.36.78c-.09.19.41.52.67.65l-1.05,1.6,1.33.16.76,1.52-1.36.35.4-.63.23-.64-1.66.14.47.65c.11.14-.02.51-.02.81,0,.41.9.8,1.19.85l1.09,1.38c-1.02.28-1.92.63-2.9,1.1ZM14.6,208.2l-1.05-.28.85-.54.74-1.61,1.3.2-.09-.58c-.02-.12.29,0,.64.11l1.32-1.48c.28-.31,1.11-.68,1.64-.98l.29,1.13-.73,1.46-.92,1.83c-.54,1.08-.03,1.19-.56,1.94-.07.09.68.11.67.22l-.19,2.15c-.73-.51-1.06-1.15-1.12-1.82l-.74.23c-.17.05-.32-.47-.33-.69l-.15-1.97-1.13,1.41c-.16-.34-.28-.71-.43-.75ZM19.93,226.73l-.34-.56h-2.06c.08-.81-.2-.71-.45-.15l.09-1.02c-.19-.15-.35-.18-.54.38.26.14-.27-.03-.26-.15l.1-.68-1.13-.07.34-1.16,1.73-.21c.31.72.85,1.43,1.35,1.52l1.56.27c-.47.19-.48.19-.56.21-.08.02-.37,0-.33.08.1.19.24.45.34.52.09.06.59.1.55.19l-.4.82ZM35.6,170.29l.12,2.56-.68-.69-.57-1.61.88-.94-.93-1.21c1.02.1,1.14,1.04,1.18,1.89ZM34.97,176.76c-.2-.05-.18-.83-.33-.9l-.41-.2-.12-.39.06-.18,1.22.14.56,1.78-.98-.24ZM41.01,246.28l-1.02.68.12-.83c.02-.16-.21-.39-.33-.54l1-.05c.17,0,.14-.23.21-.73.21.1.6.4.59.63,0,.23-.36.69-.58.84ZM46.81,249.57c-.26.3-.5.93-.69,1.45-.13-.11-.47-.63-.43-.88.13-.9.92-.89,1.29-2.12.06-.19.79-.71.82-.52l.14.79-1.13,1.27ZM48.6,135.93l-.63-.2c-.08-.03.06-.3.14-.31l.39-.07c-.02-.07-.27-.74-.08-.76l.88-.11c.2-.02.36.52.37.8,0,.27,0,.68-.13.7-.19.02-.72,0-.92-.05ZM102.58,160.8l2.42.2-2.5.62-.77-.76-2.81.16c.64-.74,2.47-.75,3.66-.22ZM92,159.6c.84-.09,1.67.07,2.6.19-1.53.42-3.08.39-4.78.04l2.18-.23ZM88.02,181.96c.74.18,1.16.17,1.7-.09l.86-.41c.19-.09.85.46.68.59l-1.37,1.06c-.06.05-.42.16-.5.19-.07.03-.05-.22-.04-.41l-.68.02c-.16,0-.3-.41-.39-.75-.23-.15-.78-.51-.27-.19ZM55.68,146.78h1.9s-.75.21-.75.21c-.17.05-.36.42-.19.45l.79.15c.11.02-.16.33-.27.42l-1.44-.51c-.1-.04-.3-.2-.26-.29l.22-.43ZM53.79,146.82l-.35.79c-.05.12.13.25.36.5l-1.36.37-.27-2.26c.08-.04.36-.13.39-.04l.27.8.95-.15ZM53.15,142.67c.04.11.07.59-.19.03-.49.13-.9.36-.8.46l.83.75c.6-.37-.12.13-.51.4l-1.36-2.66,2.02,1.02ZM60.05,237.86h.64c.12,0,.01.39,0,.51.23-.01.71-.06.66.1-.06.22-.31.71-.47.77l-.74.26c-.11.04-.4-.24-.32-.34l.57-.68h-.4c-.09-.01-.37-.02-.33-.09.06-.12.27-.53.39-.53ZM59.07,246.77l1.06-.14.88-1.47c.16-.26.48-.57.73-.56.36.01.83.18,1.13.37l-3.59,2.66c-.15.11-.41-.83-.21-.86ZM59.02,237.08c-1.61.14-1.2,1.92-2.47.99l-.93,1.84c.12.06.18.09,0,0h0c-.12-.06-.31-.16-.39-.2-.15-.08,0-.36.09-.57l-.02-1.74.57.04c0-1.2,1.1-1.09,1.08-2.49l1.23,1.22c.33.19.42.43-.07.27-.26.11-.44.18-.52.21l1.44.42ZM61.52,226.37c.07-.06.22.58.13.84-.09.26-.52.59-1,1.01l-.69-1.31,1.57-.54ZM109.15,194.97l-1.71-.37.68.59c-.4.55-.73,1.21-.89,1.81l-.33.33c-.1.1-.08.51-.06.44l.87-.02c.2,0,.1.52.05.81.02.5.09,1.15-.08,1.49-.14.29-.69.44-1.15.56l.35.35s-.75.74-.56.77l-.84-.14.6.82-2.92,2.84-1.41,1.13c-1.08.87-2.35,1.38-3.67,1.78l-1.75.53-3.51.74-5.87.68-8.42.26c-1.24-.82-3.1-.09-6.09-.52l-4.52-.66-4.69-.91-1.43-.43-1.69-.54-2.5-1.1c-.83-.37-1.66-.83-2.3-1.45l-2.33-2.28c-.45-.44-.8-1.16-1.1-1.67-.36-.61-.76-1.23-.68-2.08.6.04,1.4-.06,1.57-.5h-.64c-.1-.01-.07-.16-.05-.4.04-.53-.07-1.07-.42-1.13-.61-.12-1.15.1-1.25.51.61.34.72.63-.11.65-.34-.65-.28-1.75.04-2.51l.02-.5c0-.12.48-.3.51-.18.02.12.09.47.05.58l-.15.46s.62.28,1.39.16c.47-.08-.68-1.11-.66-1.14l.42-.56-.66-.58c-.17-.15.18-.66.35-.81l.16.84.58-.92c.66,0,1.37-.31,1.56-.67l-1.17-1.09.39-.37c.31-.29.43.96,1.07,1.19.21.08.47-.2.86-.51l.04,1.88c.82.23.65.44-.09.26-.04.15.13.69.32.68l1.09-.09.95.41c.21.09.72-.3.87-.44l-1.29-.34,2.32-.32.35.19c.54.3-.68-1.25-.56-1.97.08-.45.83-1.31,1.28-1.19.46.12,1.21.14,1.28-.04l-.8-.75c-.2-.19.14-.81.22-.95l.54.39c.1.07.27-.12.61-.4l.4,1.87.11-1.5.94.49c-.23.71.12,2.08,1.05,2.05l1.75-.04.64-.35c.2-.11.68.39.87.54l1.45.29,1.55-.76-1.32-.38c1.3-.87,2.65.13,3.56.08,1.16-.06,1.32-.16,2.3.4.92.53,2.58.21,3.66.15l2.07-.11,1.69-.17c.19-.02.83-.26.73-.41l-.45-.71.63-.47c.18-.14-.12-.75-.35-.77-.23-.01-.67.31-.77.52-.13.28-.23.49-.35.45l-.82-.25c-.66-.2-1.05-.44-1.27-1.11-.19.07-.84.16-1.04-.04-.28-.29-.69-.6-.93-.58-.3.02-.47.7-.53,1-.58.05-.71-.12-.01-.43l-1.12-.71c.02-.25.02-.92-.16-.91l-.95.05,1.07-.81c-.03-.4.18-.81.5-.26l1.74-.75-.04-.84c.3.08.92.25.85.41l-.32.72-.32.72c-.08.19.83.32.64.2.24-.79.5-1.34.84-1.89l.33.72c.05.1.36-.22.42-.28.85.46,1.72.37,2.35-.33.44.55.52.5.14.95,0,0,.81-.07,1.16-.11.3-.03.49-.6.7-.95l1.18-.28.06-.84c.01-.19.74-.2.76-.04l-.75,1.96,1.26-.85c.24.26,1.11.57,1.59.38.41-.16.63-.93.61-1.46l1.81-.54c-.34-.54-.38-.74-.41-1.45l1.3,1.26h1c.27.02.66-.62.88-1.01l2.61.11c.4.02.41,1.37.18,1.44l1.23.5c.25.1.22.32.53,1.03.32-.89.4-1.49.37-2.28l.72.61c.1.08-.15.35-.21.43l1.25,2.28c-.24.22-.47.43-.47.41,0-.02.22.23.29.31.08.1.32-.13.41-.24l.52-1.41.52.7c.09.12.68-.06.57-.16l-.37-.37c-.06-.06-.1-.1-.03-.14l.45-.26c.14-.08.77.04.75.2l-.07.63.07.47c.02.13-.65-.01-.57.08l.36.39c.09.1.18.48.05.43l-.55-.2c-.12-.04-.13.37-.1.56.02.13.13.1.43.05l1.07.34c.18.06.39.73.24.85l-.7.56c-.06-.01.51.51.6.35l.53-.93c.09-.02.37.58.35.86s-.63.56-.98.67l.32.23c.07.05.1.12.03.16l-.73.35c.06.12.15.31.18.37.37-.04.59-.11.58-.04l-.16.78c.41-.09.69-.28.92-.16.82.43,1.26,1.79,1.26,1.79l-.78.53,2.17.76.25-.23c.09-.08.43-.1.38.01l-.31.76ZM128.28,165.26l5.25-.15c-1.71.46-3.39.59-5.25.15ZM192.56,222.77c0,.36-.1.69.05.77l.8.42-.56.89-.05.26c-.28-.34-.75-1.03-.97-1.5-.12-.26.59-.99.74-.85ZM198.79,164.54h0s-.08.08-.1.2c.02-.13.05-.23.1-.2ZM191.78,189.04h0s-.05-.06-.08-.07c.03.01.05.04.08.07ZM191.44,189.06c-.11.12-.2.3-.22.46.02-.15.11-.34.22-.46ZM189.44,216.17c-.14-.17-.28-.39-.42-.58.14.19.27.41.42.58h0ZM190.22,216.07h0s.61-.67.61-.67l-.61.67ZM190.14,214.39c.22.09.37.18.49.27-.12-.09-.27-.18-.49-.27ZM200.14,205.94l-1.41-.05c-.19,0-.37.49-.39.81l-2.34.97-2.22.72-2.67.62-1.67.43-4.8.54c-.9.1-1.69.3-2.55.34l-5.1.26-3.39-.03-1.44-.24-.12.4c-.04.13-.46-.1-.58-.14l-.98-.17-4.57-.28-2.15-.28-2.33-.51-2.42-.53c-.69-.15-1.86-.8-2.61-1.13-1.87-.82-3.36-1.87-4.7-3.33l-.98-1.07c-.74-.81-1.5-1.65-1.97-2.71l-2.47-5.6-.74-2.15-.7-2.28c-.21-.7-.38-1.34-.73-1.92-.19-.36.24-1.16.54-1.47l-.47.17c-.1.04-.16,0-.18-.09l-.11-.64c-.03-.16-.21-.66-.07-.7.1-.03.37-.12.47-.15.31.78.59,1.22.99,1.48l.06-.86c.03-.43,1.18-.45,1.2-.69l.07-.77.74.96c.59-.52,1.11-1.87,1.14-2.67,0-.29.69-.83.92-.73l1.11.48.53.04c.16.01.09.58,0,.72l-.35.56c-.09.14.12.56.2.53l1.42-.16c.36-.04.56-.98.79-1.48l.49,1.41c-.37-.02-.7-.05-.94,0-.28.06-.36,1.21-.14,1.02.31-.26.75-.69.95-.7l2.03-.09.59-1.16-.96.11c-.18.02-.27-.72-.16-.87l.83-1.2.38.07s-.07.57-.02.69c.2.52,1.47.24,1.93-.35l1.62-.15.14.38c.06.15.66.16.82.12l2.05-.6.12.99c.23-.11.57-.33.69-.26l.56.32s-.17-.81,0-.75c.15.06.48.18.57.25l.64.48c.18.13.55-.37.75-.68l1.23.47-.7.23c-.08.03-.44,0-.4.08l.42.65-.82.93c-.39-.47-1.06-.98-1.49-.98-.09,0-.29.58-.26.67.04.13.25.39.35.3l.56-.46.31,1.22c.57-.32,1.33-.48,2.18-.47l.33-.8,1.78-.81c.02-.09.41.38.33.54l-.41.93,1.47.31.03.18c.01.08.11.33.17.27.1-.11.33-.45.31-.57l-.15-.66c-.04-.16.35-.3.47-.34,0,.22-.02.53.1.5l.69-.2.02,1c0,.27.8.52,1.28.52l-.93-1.57c-.05-.09.02-.6.1-.53l.4.37,1.15-.17c.28-.04.49.81.53.99.17.07.45.18.42.19-.03,0,.14-.19.29-.38l.22.61h1.79c.15-.13.63-.62.58-.57l.25,1.08c.05.22.48.24,1.08.39l-1.03.67.87-.16c.15-.03.19.31.21.67l2.2.12-1.01.47c-.62-.18-1.11-.13-1.64.02l.82.36c.15.07-.13.58-.3.61l-.7.12s.27.54.11.61l-.86.37,2.2.81,1.58-.45,1.6-.48,1.5-.44c.15-.04.42-.63.52-.51l.51.65c.14-.2.33-.58.54-.57l1.15.06c-.79-.44-1.52-.78-1.56-1.71l.62.77.24-.53c.03-.07.29.17.27.24l-.14.4c-.06-.01.35.22.38.12l.21-.59,1.2.22.65.82-1.06-.34-.17.3,1.1.4.53-.61c.08-.09.34.43.28.53l-.21.3-.56.35c-.28.17,1.01.72,1.01.76l-.04.47-.04.52c0,.12.65.22.64.1l-.11-.77,1.91,2.19-.16-1.04c-.03-.17.49-.37.69-.4l-.15.96c.33-.32.63-.66.55-.81l-.36-.65.35-.9c-.55-.23-.24-.34.12-.29.32.39.92.9,1.33,1.09.12.06.21.65.06.62l-.96-.21-.26,1.39c-.1.53-.36.95-.88,1.48-.03-.01.48.2.53.23-.2.27-.21.62.05.86.15.14.39.03.93-.17l-.17.64s1.55.23,1.11,3.24l.95.72-.95-.3c-.2-.06-.37.58-.28.95l.42-.53c.08-.1.14.41.22.51.08.1-.17.16-.29.2l-.55.19c-.75.25.75.07,1.46.55l-.95.52c.77.12,1.39.16,1.81.49.16.17-.67.45-.96.28l-.24.96-.22-.28c-.06-.08-.41-.07-.37.02.36.82,1,.82.86,1.21l-.37,1.06.74.16c.18.04.5-.3.54-.39l.23.9c.41-.58.55-.92.75-.93l.89-.04.46-.1c.14-.03.05.49.01.78ZM202.61,198.39l-.19.5.19-.5h0ZM202.27,170.29l.64.57h0s-.64-.57-.64-.57ZM202.75,197.21h0c.28.12.54.2.82.26-.28-.06-.53-.14-.82-.26ZM203.31,200.77h0s.77-.96.77-.96l-.77.96ZM205.22,197.83h0s.06.04.11.08c-.04-.04-.08-.07-.11-.08ZM208.07,182.25l.69-.27-.69.27h0ZM208.33,192.07h0s.42-1.72.42-1.72l-.42,1.72ZM208.89,179.78l-.45.2.45-.2h0ZM209.33,177.03h0s.24-1.55.24-1.55l-.24,1.55ZM209.51,174.58c.13.05.28.14.37.21-.09-.07-.24-.16-.37-.21Z"/>
      <path d="M104.66,190.39c-.05-.1-.07-.15,0,0h0Z"/>
      <path d="M168.05,217.79h0s-.05.01,0,0Z"/>
      <path d="M188.78,2.85c.45.34.86,1.8,1.7,1.98l.96.91.65.08c-.21-.03-.21,1.32,1.88,2.4.36.74.87,1.3,1.6,1.73,0,.18-.07.7.08.76.12.05.45.11.54.2l1.37,1.3.19,1.31c1.71.2,1.73,1.59,2.53,1.52.3-.02.67-.59.81-.9.11-.27-.47-.74-.64-1.06-.49-.93-.75-1.69-1.61-1.62.15-.19.36-.46.36-.45-.11.24-.6-1.02-1.62-1.24-.51-.91-1.14-1.62-1.94-2.36l-1.8-1.65-1.24-1.05-1.3-1.14c-.23-.1-.72-.17-.83-.39l-.51-1.04c-.23,0-1.02.17-1.09-.04l-.28-.84c-.63-.25-1.01-.51-1.4-1.26h-1.63s1.8,1.77,1.8,1.77l1.42,1.08Z"/>
      <path d="M201.14,16.75c.07.08-.3.19-.4.22l-.96.73c.35-.08.76-.18.92-.25l1.88-.82-.17-1.48-1.76,1.04.49.57Z"/>
      <path d="M204.34,18.38l-.78-.63.47-.34-1.4-.19c.3.67.74,1.42,1.23,2.05.29-.27.66-.75.49-.88Z"/>
      <path d="M18.56,59.41c-.18,1.44-.3,2.66.54,3.86l-.05,1.77c-.13.38-.38,1.19-.29,1.59l.57,2.53c.15.68,0,2.24.19,4.34l.07.73c0,.09.11.05.19.01l.54-.25-.25,1.26c-.03.16-.17.6-.05.66l.53.29v1.51c-.09.16-.33.51-.24.64l.33.51-.46,2.09c1.13.29,2.36.62,3.57.61,5.22-.03,10.2-.22,15.33-.85l35.19-4.39c27.72-4.03,55.18-8.78,82.62-14.24l37.53-8.23,15.77-4.51c1.69-.48,3.1-1.23,4.53-2.31-.51-.69-1.34-1.08-2.2-1.09l-6.75-.11.11-.76c-.63.85-1.02.89-1.86.95l-7.12.54-34.06,4.16c-33.4,4.79-66.47,10.69-99.43,17.49l-2.26.37c-3.52.58.23-3.74-2.91-5.49-.37-.6-.9-1.06-1.5-1.43l.68-.26c.13-.05-.03-.64-.03-.5-.24.2-1.3.48-1.37.17l-.3-1.33c-.33.79-.92,1.17-1.77,1.29l.4-.8c.05-.09-.13-.3-.19-.41l-.03-1.23c.52-.14,1.12-.31,1.3-.08l.79,1.04-.53-1.66-.27-.89c-.07-.23-.98-.23-1.04-.13l-.18.98c-.04.2-.74.04-.88-.05l.38-1.17c.05-.16.3-.47.46-.43.12.03.48.11.47.11l.12-1.21c.4-.33.82-.95.69-1.3-.13-.35-.58-.74-.87-.9l1.82-.42c-.42-.27-1.01-.28-1.27-.01l-.5-1.4-1.24.03c.9-.41,1.69-.68,1.58-1.6l-.9.71c-.24.19-1.31-.65-1.51-.3l-.35.59-.28-1.33c.02-.16.28-.43.59-.75-.01,0-.53-.31-.53-.31l-.56-2.84-.17-1.31c-.02-.13-.41-.45-.52-.39-.11.06-.28.2-.26.32l.04.42-1.13-.4c-.2,1.4,1.06,1.4,1.12,2.69l-.63-.47c-.08-.06-.23-.04-.23-.02l.09.85c.72-.13.65.29.2.38-.29.18-.73.52-.88.37l-.75-.8,1.23-.24-1.03-.78.77-.24c.09-.03.13-.43.04-.47l-.45-.18c-.11-.04-.6-.19-.51-.28l.46-.46c-.27-.21-.84-.84-.72-1.14l.61-1.52-1.76-.59c-.07-.31-.13-.81-.33-.86l-.77-.16c-.16-.04-.73-.13-.69-.28l.14-.5.14-.15c.1-.41.58-1.1.94-.99.23.07.8.6.85.44l.28-.89c.1-.33-2.26-.05-1.85-.64l.67-.98c-.41-.55-1.63-.05-1.91.58l-.19-.99c-.05-.25-.56-.48-.81-.49-.11,0-.32.57-.22.6l.77.24-.07.56c-.02.16.52.26.73.27.19,0,.54.53.43.69l-.52.7c-.38-.79-.46-.93-.29-.53-.29.75-.41,1.06-.64,1.36-.18.23-1-.15-.89-.41.18-.46.27-.82.1-1.06-.35-.49-.78-.42-1.18-.14-.48.02-.82-.01-1.07.13-.33.19-.42,1.36-.08,1.31l.62-.08c.36-.05-.32,2.45,1.65,3.33l1.01-1.37c.08.15.33.61.42.54l.68-.53.63,1.97,1.75-1.42c-.05.31-.21.75-.37,1.03l-.45.84-.53-.4c-.13-.1-.36.54-.26.52.59-.23,1.83.37,1.64.88l-.41,1.11-.83-.83c-.31.73-.52,1.15-.83,1.43-.28.26-.91.2-1.46.13l.98,1.19c.2.25.8.69.92,1,.11.29-.2.72-.47,1.16l2.05-.45.62-.54-.7,1.99,1.66.97c-.85.52-1.1,1.02-1.13,1.88l.51-.45c.21-.18.96,1.03,2.18.74l-.87,1.23s.53.33.48.51l-.26.97c.44.02.86-.02,1.02.2.21.31-.02,1.17-.24,1.29l.7,1.11.68-.46c.08-.05.47-.06.57-.06.14,0,0,.39-.07.59l.25.07c.07.02.33.06.28.11l-.45.4-.35.28c-.07.06,0,.38.08.35l.56-.17.06.54c.01.13.35.35.51.49l-.7.89c.24.74-.19,1.49-.96,1.62v.62s.82-.6.82-.6l.24,1.3-1.35.91,1.8.33c.05.18.36.84.55.75l1.01-.48-.31-.44c-.11-.15-.48-.09-1.07-.14.17-.15.85-.46,1.23-.6l1.29-1.04.16,1.48c.17-.35.31-.85.39-1.53-.42.15-.88.03-1.18-.31-.19-.62-.16-.6-.12-1.5l.78.52c.66-.27,1.33-.32,2.07.08l-.83.16c-.16.03.03.57.11.71l.7,1.21,1.06-.26c-.27,1.12-.92.8-1.7.83-.17.44.69,1.35,1.06,1.39l.43-1.17.34,2.12-2.02-1.1-1.25,1.32c.16.13.67.73.56,1.06-.14.39-.54.94-.93.99-.52.07-1.08-.23-1.3-.63-.55,1.08-1.88,1.18-2.87,1.45l-2.79.77-.05-1.67c-.57.15-.81.66-.91,1.46l.84-.16c-.16.26-.35.61-.49.57-.2-.04-.77-.17-.71-.15-.05-.75-.19-.97-.54-1.42l-.77-.98c-.21-.26-1.03-.16-1.39-.06l-.1,1.14.79-.21c.13-.03.16.34.22.68.09.48.45.69,1.23.96l-2.06.7.16-1.21c.03-.22-.47-.6-.56-.79l-.05-1.11c-.01-.3-1.39-1.15-2.41-.4-.48.36-.77,1.02-.64,1.4l-.13.19-.65-.7c.26-.4.54-.91.37-1.06l-.77-.67,1.49.43-.06-1.43,1.31.06.29.39.18-1.02c.02-.09.2.28.29.32l.42.22c.18.09.59.39.49.56l-.37.62,1.02.09-.39-1.39-1.18-1.35c0-.07-.44.12-.43.27l.04.55-1.21.29-.12-1.73-1.25-.14.06,1.56-1.24-.7c-.05.42-.04.51-.1.61l-.27.43,1.15.36-1.55.03c.06.6-.23,1.39-.69,1.81l-1.19,1.1-.23-1.03c-.06-.26.41-.6.59-.78l-.06-.53c0-.08.1-.07.13,0l.2.42.23.49c.05.1.33-.16.31-.21-.11-.26-.3-.73-.17-.89l.58-.72-.64-.86,1.07.09c.17.01.28-.3.37-.54l1.54-1.24c.21-.03.83-.15.8-.34l-.14-.8,1,.12.29-1.26.66-.78c.15-.18-.34-.91-.34-.81l-.68,1.04-.4,1.37-.29-1.67c-.08.02-.61.17-.62.06l-.03-.59c-.01-.25-.11-.81-.37-.8l-.95.05.14.64-.56-.05c-.08,0-.19-.2-.34-.44l-2.07.5-.47-1.52-1.07-.27c1.71-1.59,3.23-1.31,2.64-.69l-.4.42,1.35-.03c.44.58,1.36.85,1.95.58-.53-.32-.52-.52.07-.49.46-.27.24-1.01-.4-.45l-2.01-1.46c-.48-.35-1.77.17-2.06.66l-.45-1.03c-.37-.04-.6-.08-.55-.21.04-.09.23-.47.21-.45-.01,0,.31.17.48.25l1.79-1.34,1.01-.42.53-1.98-1.58.07-.97-.62-.34,1.69c-.06.12-.59.67-.41.77l.84.49-1.55.37c.21.99-1.76,1.9-1.58,1.96l-.72-.24.83-1.39c.08-.05.35-.13.41-.25l.28-.61,1.29-.56-.81-1.37.84-2.18-1.35,1.36-.27-.96-.32.69c-.05.1-.45.22-.57.27-.15.06-.46-.52-.3-.56l.8-.16-1-.93-.7-1.51,1.14-.17.15,1.46.64-1.21.27-.51c.06-.12-.44-.2-.59-.23l-1.25-1.18-.46,1.02c-.22-.33-.48-.72-.7-.68l-.78.13.34-.61c.06-.1.08-.36.09-.45l1.19.06c.08,0-.19-.68-.12-.72.06-.04-.22.18-.29.24l-.28.22.21-.75c.04-.14-.31-.39-.55-.6l1.94-.49c.14-.25.39-1.06.33-1.4s-.59-.79-.96-1.05l-.31.57c-.06.11-.39.2-.58.23l.04-1.37c0-.23.72-.33,1.01-.41.21-.05-.16-.73-.37-.77l-.9-.14c1.01-1.42,2.72-1.81,2.23-2.45-.07-.1-.34-.27-.4-.17l-.36.62-.87-.83c-.28-.26.47-.82.95-1.02.86-.35.81-2.81.37-2.8l-.49.02c.63.36.05.44-.13.49-.1.03-.38.02-.37-.09l.06-.66-.99-.02,1.72-.57c-.23-.25-.63-.62-.57-.85l.24-.88.85.73c.18,0,.69.18.59.29l-.46.52c-.16-.11.19.13.47.32l1.07-1.05.31-1.74-.98-.25.95-.5-.3-1.47,1.07.68.46-.81c.07-.13-.38-.51-.51-.44l-.65.39.42-.85-.9-.7c-.17-.13-.03-.55.13-1.09-.07-.23.03.09.13.44.07.32.28.91.54.94.22.03.76.12.83-.08l.3-.88c.52-.02.71.11.14.43.05.07.46.17.66.13.34-.08.21-1.74-.11-1.86-.24-.09-.85-.19-.89-.17l.45.48c.14.15-.97.75-2.14-.12.11-.74,1.06-.5,1.48-.45l.92-1.2c-.16-.45-.29-1.01-.2-1.46l.64.46c.1.07.34-.4.27-.49l-.3-.42c-.16-.22-.32-.93-.15-1.03.61-.24,1.09-.89,1.14-1.35l1.59-.34-.65-.47c-.11-.08-.1-.26-.16-.8l1.04.71c.18-.15.53-.49.68-.42l.65.29c.13-1.09-1.02-.49-1.14-1.24-.04-.27.23-.75.37-.85-.13-.03-.76-.23-.66-.36l.38-.48c.1-.13-.16-.61-.02-.71l.59-.38c.2-.73.81-2.04,1.58-2.25l.55-.15c.07-.02.02-.09-.04-.13-.07-.04-.36-.22-.35-.22.5-.11,1.06-.27,1.38-.58.19-.18.24-.66.07-.96-.1-.18.44-.35.5-.17l.24.66c.06.17.41.37.63.42.15.03.17-.41.08-.52l-.37-.46-.58-.64c-.1-.11.22-.55.37-.58l.74-.17c.14-.03-.01-.59-.14-.66-.13-.07-.28-.08-.47-.06l-1.12.11-1.3.11-.57.91,1.2-.04-.16,1.6c-.09.36-.15.41-.2.07l-.39-1.17c-.73.65-1.16.69-2.28.5v1.31c-.42.42-.86.91-1,1.24l.57.08s.02.13.07.54l-1.44-.27c-.6-.11-1.2,1.29-.95,1.78-.42.02-.97.03-1.05.23l-.26.67-1.18,1.33-1.39,1.02-1.54,1.63c0,.12-.04,1-.3,1.15l-.97.57c-.25.5-.27,1.07,0,1.53l-1.28.85c-.61.4-1.69.64-1.91,2.63-1.54.5-.3,1.04-1.76,2.49-1.05,1.04-1.06,2.67-2.37,3.34.17.95-.2,1.89-.94,2.57-.27,1.37-.72,2.59-1.3,3.93-.21.45-.54,1.01-.81,1.4l-1.25,4.51,1.35-.09c-1.15.52-2.02,1.34-1.59,2.51-.57.88-1.05,2.07-.75,3.24l-.72,1.34c-.15.27.6.96.75,1.03-.21.3-.27.8-.29,1.42l-.56,2.67c-.27,1.28.72,3.01.55,4.39ZM44.69,40.58c-.83-.21-1.8-.04-2.84.39,0-1.29,1.47-.88,2.05-.97l1.33-1.78.08.76-.27.12c-.25.29-.36.93-.35,1.48ZM57.42,67.34c.08.25.14.53.23.58l.51.29.49,1.02c-.57-.01-.79,0-1.69.28,0,.23-.32-.79-.33-1.1,0-.35.47-.72.8-1.07ZM42.37,70.15c.29-.19.94-.38,1.29-.46l-.09,1.67-1.26-.98.05.65c0,.12-.09.31-.18.43l-.1.13c.05-.68.03-1.27.28-1.44ZM37.61,71.66l.64-.49c.16-.12-.4-.69-.42-.75l.7-1.34c.23-.43.78-.97,1.4-1.67-.17,1.15-.38,1.82-.87,2.88l.57.68,1.4-.27.08-.05.95.97-.73.98-.37-.82c-.07-.16-.37.04-.54.16l-.35-.38c-.1-.12-.55.07-.52.19.07.28.27.76.08.82-.26.08-.98.31-.92.29l.22-.65c.02-.07-.21-.11-.25-.05l-.29.32-.43.48c-.11.12-.47-.15-.5-.21l.41-.5-.25-.58ZM25.28,67.05l-.17-.69c-.13-.14-.29.05-.51.87.05.07.06.09,0,0h0c-.1-.15-.37-.53-.47-.69-.14-.2.23-.69.39-.89l.35-.43c.06-.07.2.17.22.26l.12.45,1.04-1.15c-.06.74-.13,1.11-.29,1.69l-.13.48c-.04.13-.52.23-.56.09ZM25.4,73.28l.99-2.3.59,1.72-1.58.57ZM28.95,72.29l-.62-.8.58-1.66c.18.02.87.69.79,1-.1.4-.23.59-.76,1.46ZM29.59,65.74s-.38.04-.43-.09l-.27-.85-.89,1.15c-.28.37-.38.63-.4,1.37l-1.2.45.92-1.98c.03-.18-.07-.64.08-.74l.68-.44-1.17-.71c.03-.41.56-1.47.98-1.85l1.56-1.41c.03.53.15,1.48.34,1.89l.66.37c.51.28-.7,1.28-.85,2.83ZM29.97,60.37c.2-1.59,1.16-3.34,2.15-4.19l.4,1.05-.67-.04c-.16,0,.05.69.08.82-1.15,1.05-.33,2.2-1.95,2.36ZM36.49,66.43c-.38.5-1.67,1.45-.71,1.06.1-.04.18-.07.13-.05-.05.02-.09.04-.13.05-.09.04-.19.08-.26.11l-.55,2.01c-.33-.21-.75-.53-.68-.7l.39-.94c.19-.47.28-.84.02-1.28-.04.01.11-.34.23-.3l.86.24c.08.02.18-.22.15-.3l-.16-.47c.29-.23.93.28.71.58ZM33.09,62.11l.23-1.35.82,1.82.87-.09c.2-.02.06.63-.03.82l-1.69,3.45c.13.37.16.86-.12,1.04-.59-1.39-.25-3.12.9-4.11.4,0,.57-.18.13-.26-.17-.3-.41-.85-.55-.77l-.76.42-.13-.58c-.02-.09-.25-.16-.35-.15-.1,0-.12.35-.13.47l-.06.78c-.01.14-.58-.11-.57-.25l.06-.55.48-.97c.1-.21.96.29.92.29ZM27.48,37.33l1.41-.46c-.49-.65-.63-.83-.5-.66l.49-.65c.05-.07.25.19.25.28v.46s1.3-.35,1.3-.35c.05.16.02-.22-.08-.28l-.62-.37c.73-.29,1.2-.54,2.05-1.14l.66.97-1.34.1-1.16,2.4-.55-.36c-.09-.06-.4.11-.49.17l-1.41.94-.44-.65c-.07-.11.31-.34.45-.38ZM28.92,46.48c.11-.18.51-.49.71-.51.24-.03.69.55.56.77l-.75,1.29-.53.56c-.11.12.08.48.18.53l.82.55-.67.1c-.4.06-.27.64-1.06,1.02-.1.05-.35-.2-.32-.31.03-.11.35-.41.32-.52l-.41-1.93-.8,1.25-.27-.84c-.17-.54,1.14-.26,2.21-1.97ZM26.27,57.79c.43-.19.69-.26.71-.42l.1-1.19c-.08-.13.15.23.32.49.05-1.03.69-1.97,1.5-2.73l-.11-.72c-.03-.17.49,0,.89.12l-.33-.67.51.06c.13.01.14.51.12.65l-.91,1.56,2.54-2.11c.15-.13.58-.06.82,0l.62.26c.18.08.3.76.11.82l-.62.17c-.12.03.29.3.53.45l-1.07.16.52.74c-.58-.01-1.15.14-1.39.46l-1.84,2.41c-.09-.25-.12-.73-.08-1.2l.05-.62c.01-.15-.4.02-.47.15l-.77,1.36-.71,1.31c-.2.36-.65.46-1.34.26l.69-.51-.4-1.25ZM24.9,57.04l.75.27-1.09.97-1.24-.6,1.58-.64ZM23.25,70.4l.81,1.02c.16.2.55-.13,1.18-.4-.3,1.21-.3,1.3-1.11,1.8-.07.04-.07.31.01.32l.63.02.49.53-.27,1.34c-.24.3-.77.8-1.07.72-.3-.08-.65-.47-1.04-.9l-.49.97-.31-1.29c-.27-.01-.71.02-.75-.15l-.19-.86.43.4c.06.06.3.19.29.11l-.06-.62.55-1.58c.51.65.67.86,1.3,1.3.25-1.14-.85-2.14-.4-2.73ZM20.43,55.24l.41-1.01,1.86.89c-.77.03-1.57,0-1.75.41l-.68,1.53-.42-1.06c-.08-.2.41-.61.58-.76ZM22.03,65.71c.58,1.18-.31,2.34.01,2.46l.32.12c.09.04.17-.19.3-.45l.23.51c.05.11-.1.17-.43.44l-1.2,1.01c-.1.08-.33.4-.41.5-.08.1-.53.08-.54-.04,0-.13,0-.44-.04-.56l-.57-1.44c1.8-.57,1.38-1.92,2.32-2.55Z"/>
    </g>
  </g>
</svg>