<?xml version="1.0" encoding="UTF-8"?>
<svg id="Layer_2" data-name="Layer 2" xmlns="http://www.w3.org/2000/svg" viewBox="0 0 877.32 268.89">
  <defs>
    <style>
      .cls-1 {
        fill: #0d1012;
      }
    </style>
  </defs>
  <g id="Layer_1-2" data-name="Layer 1">
    <g>
      <path class="cls-1" d="M392.44,132.26c-4.51-3.19-9.54-5.19-15.11-6.12l-30.73-5.16c-3.21-.54-5.83-2.65-6.39-5.25-.68-3.19.15-6.22,2.9-7.81,6.05-3.5,22.77-3.09,30.48-.58,4.14,1.45,6.51,5.28,5.92,9.71-.15.39.03,2.04.56,2.04l19.39.09c.9-12.6-5.75-22.99-17.2-27.91-4.72-2.03-9.74-3.55-15.01-3.55h-14.04c-4.65,0-9.03,1.2-13.42,2.59-12.45,3.94-21.27,14.4-19.49,27.74.88,6.61,4.16,12.28,9.88,15.78,4.32,2.64,8.96,4.27,14.06,5.03l27.15,4.02c3,.44,5.78,1.35,8.12,3.17,1.63,1.26,1.73,3.28,1.83,5.15.4,7.48-7.68,7.41-14.36,8.01-3.16.28-6,.3-9.16,0-4.08-.39-8.22-.26-11.97-1.98-4.98-2.28-5.36-6.02-5.33-11.62h-19.54c-.56,12.49,5.13,22.24,16.47,27.32,5.47,2.45,11.08,4.12,17.3,4.12h14.24c4.74.01,9.3-1.18,13.68-2.71,12.07-4.21,19.95-14.27,18.36-27.16-.76-6.12-3.58-11.33-8.62-14.9Z"/>
      <path class="cls-1" d="M469.41,117.84c-13.18-11.37-38.77-11.44-51.54.09-8.68,7.84-11.82,18.08-10.8,29.56,1.59,17.78,12.85,27.86,30.39,29.53l11.82.04c15.06-1.27,29.39-9.06,29.02-25.37l-19.88.05c.59,3.51-.77,6.16-3.45,7.66-5.55,3.1-19.49,2.92-24.46-.55-3.71-2.59-5.04-6.77-5.16-11.48l52.97-.02c1.96-10.62-.79-22.49-8.9-29.49ZM425.5,136.93c.72-5.27,3.16-9.42,8.24-10.89,6.01-1.74,12.31-1.73,18.3,0,4.79,1.38,7.73,5.46,7.82,10.85l-34.37.04Z"/>
      <rect class="cls-1" x="486.71" y="88.83" width="19.95" height="87.09"/>
      <rect class="cls-1" x="516.65" y="88.83" width="19.95" height="87.09"/>
      <path class="cls-1" d="M767.86,158.56c-1.61.7-3.2.36-4.85.49-2.72.21-5.27.95-8.14.06l7.93-5.09,10.31-7.3,24.61-18.98.06-17.22h-65.46s0,17.68,0,17.68l25.13.12c2.62-.67,5.11-.44,7.83-.51,2.37-.06,4.77-1.17,7.39.08l-9.9,6.37-3.67,2.22-28.53,22.68-.03,16.77h69.41s-.07-17.29-.07-17.29l-31.98-.08Z"/>
      <path class="cls-1" d="M877.19,139.52c.1-10.66-5.27-20.17-14.57-25.4-5.55-3.12-11.62-4.2-17.91-4.72l-5.44.02c-8.41.03-16.41,2.83-22.94,8.43-7.28,6.23-10.93,15.56-10.87,25.12.04,5.85.59,11.3,3.03,16.63,5.95,13.02,19.5,17.84,33.5,17.7,9.83-.1,19.85-1.88,27.22-8.37,5.08-4.47,8.04-10.41,7.44-17.31l-20.04.21c.8,3.64-.6,6.14-3.33,7.67-5.3,2.96-20.93,3.3-26.12-2.13-2.55-2.67-3.48-6.69-3.22-10.33l23.26.28,29.6-.11.48-4.48c.14-1.33-.1-2.08-.09-3.21ZM833.08,125.77c6.26-1.54,13.02-1.47,19.13.98,4.13,1.65,5.89,5.91,6.21,10.17l-34.23.03c-.12-5.62,3.45-9.83,8.89-11.17Z"/>
      <path class="cls-1" d="M716.28,117.86c-3.88-4.03-8.9-6.16-14.22-7.44l-7.5-.98c-2.34-.31-4.24-.13-6.57.04-6.18.45-12.25,1.62-17.69,4.55-5.21,2.81-9.47,6.94-11.84,12.22-1.59,3.54-2.47,7.14-2.1,11.14l20.08-.11c-.84-4.02.64-7.25,3.87-8.89,2.82-1.43,5.82-1.58,8.98-1.44l7.26.33c5.97.27,8.3,6.6,7.34,12.59l-24.76,2.46c-5.5.55-10.87,1.25-15.74,3.73-5.16,2.63-8.26,7.24-8.48,12.92-.28,6.96,3.13,12.98,9.51,15.83,8.57,3.82,22,3.28,30.13-1.41,4.92-2.84,7.77-7.08,10-12.71l.39,15.23h18.68s-.29-41.33-.29-41.33c-.04-6.45-2.76-12.29-7.06-16.74ZM700.6,159.04c-4.83,4.23-16.31,5.26-22.37,3.72-2.54-.64-3.46-2.45-3.35-4.85.1-2.07,1.94-3.49,4.38-3.78l24.79-2.96c-.32,2.96-1.24,5.94-3.45,7.87Z"/>
      <path class="cls-1" d="M651.01,175.17s-.06-.07-.1-.1l-13.57-25.2c-2.85-5.29-7.11-8.34-13.21-10.1,1.95-1.04,3.47-.83,5.23-1.16,14.29-2.61,21.46-12.92,19.8-27.39-.84-7.3-4.57-13.18-10.73-17.16-5.01-2.72-10.5-4.99-16.58-5.01l-54.46-.25v79.96s.03,7.18.03,7.18h19.51s0-26.25,0-26.25l.02-5.43,13.88.13,5.04.5c4.27.42,7.66,2.75,9.63,6.44l13.03,24.45,22.99.2c.07-.47-.3-.64-.49-.8ZM586.92,129.6l-.02-22.17c0-.47.06-.77.43-.87l32.18.16c1.93,0,4.18.9,5.61,1.96,2.97,2.2,3.59,5.71,3.5,9.18-.08,3.07-.14,6.22-2.39,8.58-1.76,1.85-4.67,2.93-7.45,2.95l-31.86.21Z"/>
      <path class="cls-1" d="M240.75,51.6c-3.06-11.47-12.03-20.38-23.41-23.41l-20.44-5.44-23.39-6.28-21.21-5.67-24.33-6.5-14.39-3.86c-.52-.14-1.44.24-1.67-.44h-9.11c-6.08,1.36-12.44,3.28-17.23,8.06l-62.75,62.52-14.06,13.99c-.61.61-.66,1.3-1.07,1.7l-1.47,1.43c-3.26,4.45-5.03,9.39-6.12,14.61l-.11,2.99v6.5c.14.72.49,1.75.75,2.73l6.1,22.86,21.37,79.67c1.76,6.58,5.36,12.45,10.62,16.69,3.16,2.55,6.75,5.09,10.83,6.17l105.67,28.11c9.61,2.56,21.19-.65,28.18-7.63l77.15-77.06c7.54-7.53,10.08-19.46,7.39-29.55l-27.3-102.18ZM233.01,166.12l-62.64,62.65c-5.42,3.44-9.59,4.49-15.95,3.5l-82.38-22.06c-7.42-3-10.05-5.66-13.06-13.09l-16.61-61.96-.92-.07.71-.71-5.43-20.49c.06-1.66-.3-2.85-1.09-3.56l.94-1.06c.43-4.81,2.68-9.13,5.96-12.62l.15-1.4.98.24c6.87-6.83,13.74-13.66,20.6-20.49l-.33-.9.99.24,39.58-39.03c4.11-2.99,9.4-3.66,14.31-2.66l1.03-.64.28.97c7.39,1.94,14.78,3.89,22.16,5.83l.61-.74.27.97c6.79,1.81,13.58,3.62,20.37,5.43l.61-.74c.2.97,1.15,1.52,2.86,1.66,6.2,1.93,13.5,3.88,19.83,5.29.23.05.48-.41.61-.73l.27.97,13.03,3.49c7.9,3.06,10.89,5.55,13.96,13.51l22.17,82.54c.89,5.68-.25,11.07-3.86,15.63Z"/>
      <path class="cls-1" d="M197.02,75.85c-.81-1.19-1.99-2.29-3.14-3.16l-74.39-19.95c-2.39-.64-5.71-1.62-7.81-.08l-19.86,19.54c-.5.49-.7.93-.67,1.36l74.61,19.45c3.31,1.08,5.51,3.23,6.74,6.4l6.5,24.05-16.88,16.82-7.79-28.92-80.61-21.23-20.19,20.53c-.62.63-1.24,2.75-1.04,3.77l20.34,76.16c.83,3.1,2.36,5.07,5.58,5.93l76.56,20.42c1.4.37,3.79-.55,4.78-1.55l55.91-55.78c1.64-1.64,2.76-3.77,2.08-6.32l-20.73-77.44Z"/>
    </g>
  </g>
</svg>