<?xml version="1.0" encoding="UTF-8"?>
<svg id="Layer_2" data-name="Layer 2" xmlns="http://www.w3.org/2000/svg" viewBox="0 0 899.63 200.19">
  <g id="Layer_1-2" data-name="Layer 1">
    <g>
      <path d="M899.62,97.81v34.34s-47.35.09-47.35.09c.6,14.91-3.03,37.31,11.54,36.01,9.88-.88,9.65-11.12,10.4-21.29l24.37,1.44c1.67,16.77-4.55,32.09-20.91,36.91-9.06,2.67-18.64,2.89-27.9.72-9.76-2.28-16.86-9.01-20.25-18.4-2.91-8.06-4.74-16.45-4.73-25.18l.02-39.43c0-9.12,1.91-17.88,5.2-26.23,3.52-8.93,10.5-15.14,19.84-17.47,8.74-2.18,17.84-2.1,26.64-.13,18.49,4.14,21.22,22.16,23.13,38.6ZM852.17,115.49l20.81-.02-.7-27.33c-.8-3.42-1.73-6.47-3.41-9.34-4.34-2.84-9.16-2.69-13.2.48-1.58,3.28-2.44,6.6-3.12,10.27l-.38,25.94Z"/>
      <path d="M811.61,145.15c-.01,9.68-2.06,18.57-5.37,26.88-4.09,10.3-13.04,16.17-24,15.35-9.76-.73-18.15-5.36-22.94-14.11l-3.16,12.29-23.32-.04V7.6s27.24-.11,27.24-.11l.1,65.73c8.13-13.37,22.73-19.44,36.77-13.09,5.64,2.55,8.62,8.06,10.85,13.74,2.35,8.28,3.88,16.54,3.87,25.36l-.05,45.92ZM783.31,141.32l-.16-41.38c-.02-5.5-.91-10.84-2.45-15.9-1.53-5.05-6.52-7.73-11.7-5.51-4.03,1.73-8.8,6.42-8.81,11.55l-.11,70.24c2.81,5.86,10.01,8.64,16.05,5.61,5.64-2.83,7.2-16.5,7.17-24.61Z"/>
      <path d="M570.53,60.09v125.43s-22.1.03-22.1.03l-2.79-15.72c-6.47,12.63-17.23,18.84-30.52,17.67-16.09-1.42-20.67-14.71-21.3-30.22V60.13s28.31,0,28.31,0l-.02,92.95c.07,7.55,1.4,14.88,7.82,14.65,5.5-.19,10.14-3.17,12.29-8.24V60.13s28.31-.04,28.31-.04Z"/>
      <path d="M715.72,60.09l.02,125.43-22.06.04-2.83-15.67c-6.51,12.69-17.74,19.21-31.58,17.48-15.75-1.98-19.66-15.47-20.26-30.75V60.12s28.34.04,28.34.04l-.02,93.62,1.24,8.94c.44,3.2,3.69,5.15,6.84,5,5.32-.25,9.88-3.35,12.04-8.27V60.09s28.27,0,28.27,0Z"/>
      <g>
        <path d="M473.89,168.03c-7.52,19.28-29.13,22.35-47.82,17.99s-24.18-23.85-24.97-42.53c-.58-13.74-.59-27.15,0-40.89.84-19.3,6.82-39.07,26.78-43.52,7.91-1.77,15.86-1.81,23.86-.27,10.75,2.06,18.69,9.37,22.46,19.69,2.98,8.14,4.63,16.74,4.63,25.65l-.03,37.81c0,9.07-1.69,17.82-4.91,26.09ZM450.46,148.27v-51.15c0-4.72-.93-9.48-2.24-13.7s-4.66-6.37-8.59-6.26c-8.1.23-10.09,11.34-10.09,20.67v50.42c.02,9.33,2.01,19.95,10.16,20.14s10.76-10.59,10.76-20.12Z"/>
        <polygon points="379.82 13.94 407.99 13.86 375.35 129.99 375.36 185.54 347.44 185.57 347.46 129.91 315.28 13.97 343.37 13.82 357.72 80.87 361.48 99.8 367.57 69.69 379.82 13.94"/>
      </g>
      <polygon points="619.34 185.47 591.65 185.59 591.65 36.66 563.58 36.6 563.54 13.9 647.4 13.88 647.46 36.6 619.34 36.62 619.34 185.47"/>
      <path d="M169.32,0l27.26.71c18.04.47,35.58,1.25,53.52,3.78,16,2.26,28.3,13.47,31.46,29.22,1.23,6.12,2.23,11.83,2.86,18.17,3.22,32.1,3.24,63.95-.01,96.04-.68,6.75-1.68,12.81-3.18,19.32-3.23,13.98-14.08,24.54-28.23,27.3-6.74,1.31-13.08,1.94-19.98,2.53-25.69,2.2-50.94,2.32-76.56,2.73l-23.54.38-4.32-.75c-24.77.23-48.92-.43-73.57-2.27-6.89-.51-13.36-1.3-20.02-2.42-16.01-2.68-27.19-14.79-30.12-30.52-3.14-16.89-3.88-33.43-4.6-50.53-.39-9.33-.39-18.24,0-27.58.73-17.3,1.43-34.14,4.7-51.16,3.15-16.37,15.08-28.05,31.71-30.43C54.57,1.97,72.18,1.18,90.19.71L117.45,0h51.86ZM189.31,99.82l-74.58-42.9-.02,85.84,74.6-42.94Z"/>
    </g>
  </g>
</svg>